<?xml version="1.0" encoding="UTF-8"?>
<svg width="38px" height="20px" viewBox="0 0 38 20" version="1.1" xmlns="http://www.w3.org/2000/svg" xmlns:xlink="http://www.w3.org/1999/xlink">
    <!-- Generator: Sketch 48.2 (47327) - http://www.bohemiancoding.com/sketch -->
    <title>Hands</title>
    <desc>Created with Sketch.</desc>
    <defs></defs>
    <g id="Services" stroke="none" stroke-width="1" fill="none" fill-rule="evenodd" transform="translate(-1188.000000, -936.000000)">
        <g id="Footer" transform="translate(0.000000, 864.000000)" fill="#FFFFFF">
            <g id="Hands" transform="translate(1188.000000, 72.000000)">
                <path d="M31.125923,11.9834533 L28.4960633,4.78698667 L29.9844878,3.97398667 L32.6356029,11.2389867 L31.125923,11.9834533 Z M28.5790345,11.5561867 C28.5520381,11.54892 28.5247,11.5428533 28.4967468,11.5393867 C25.1725669,11.12812 24.2131353,10.0688533 23.2852791,9.04438667 C22.5704554,8.25518667 21.8310273,7.43905333 20.173995,7.12505333 C20.1718763,7.12458667 20.1696209,7.12418667 20.1675022,7.12372 C20.1662719,7.12352 20.1650417,7.12325333 20.1637432,7.12298667 C20.1601892,7.12232 20.1565669,7.12212 20.1528763,7.12152 C20.1376353,7.11892 20.1222576,7.11665333 20.1067432,7.11525333 C20.1024374,7.11485333 20.0981317,7.11478667 20.0938259,7.11452 C20.0785849,7.11345333 20.0634806,7.11272 20.0481029,7.11278667 C20.0435921,7.11285333 20.0390813,7.11325333 20.0345705,7.11338667 C20.0198079,7.11378667 20.0050453,7.11452 19.9902144,7.11605333 C19.9853619,7.11658667 19.9805777,7.11738667 19.9757252,7.11805333 C19.9615094,7.11985333 19.9472935,7.12192 19.933146,7.12478667 C19.9282252,7.12578667 19.9233727,7.12712 19.9185201,7.12825333 C19.9045777,7.13145333 19.8907719,7.13478667 19.8771029,7.13898667 C19.8727288,7.14032 19.8684914,7.14198667 19.8641856,7.14338667 C19.8522252,7.14738667 19.8401281,7.15105333 19.828236,7.15578667 C19.828236,7.15578667 19.2723835,7.37925333 18.716941,7.60732 C18.3930525,7.74025333 18.1345022,7.84792 17.9484662,7.92738667 C17.6192468,8.06805333 17.3458655,8.18485333 17.2712324,8.44565333 C16.6512036,9.68145333 15.9430777,10.40472 15.2717216,10.4852533 C14.9806388,10.5199867 14.734459,10.4279867 14.5439122,10.30352 C15.2539518,9.27485333 15.3306353,8.14198667 15.3836712,7.35832 C15.3990489,7.13125333 15.4197576,6.82485333 15.4560489,6.71705333 C15.6675777,6.49198667 16.0170273,6.28412 16.4551209,6.02345333 C16.8146856,5.80958667 17.2220237,5.56712 17.6862252,5.24072 C18.1004662,4.94945333 18.4430129,4.65338667 18.7451676,4.39225333 C19.1870885,4.01025333 19.5362647,3.70852 19.8375993,3.65385333 C20.9794446,3.44645333 24.2867432,3.93812 27.3141676,4.97238667 L29.4755885,10.8871867 C28.8926029,11.1697867 28.6545561,11.4482533 28.5790345,11.5561867 Z M28.2476281,13.14072 C27.9955705,13.68352 26.9810525,14.0562533 25.3488978,13.59132 C23.7850201,13.1459867 22.7718007,12.4861867 22.7616856,12.47952 C22.4928835,12.3019867 22.127441,12.3702533 21.944959,12.63232 C21.7622719,12.89452 21.8321209,13.25152 22.1010597,13.4297867 C22.1478079,13.4607867 23.2662108,14.19432 25.018995,14.69352 C25.5636388,14.8486533 26.0547683,14.9280533 26.4953906,14.94872 C26.6034446,15.15232 26.5828043,15.3961867 26.4324446,15.62172 C26.1866748,15.9901867 25.5771029,16.2981867 24.6029086,16.0577867 C22.8424698,15.62352 21.4208871,14.6236533 21.4066712,14.6135867 C21.1442252,14.4269867 20.776459,14.4827867 20.5847504,14.7385867 C20.392905,14.99452 20.4501101,15.3538533 20.7124878,15.5408533 C20.7774158,15.5871867 22.325164,16.6801867 24.3142863,17.1709867 C24.3311676,17.17512 24.3477072,17.1786533 24.3644518,17.18252 C24.3192072,17.2892533 24.2466928,17.3980533 24.1500525,17.4966533 C23.8260273,17.82712 23.3335309,17.9650533 22.832218,17.8651867 C22.6789878,17.8346533 22.5185129,17.7921867 22.3563295,17.74232 C22.3546209,17.74172 22.3529806,17.74132 22.3513403,17.7407867 C21.4316173,17.4571867 20.4595417,16.9314533 20.4432072,16.9225867 C20.1593007,16.7677867 19.8008978,16.86672 19.6423367,17.1434533 C19.4835705,17.42012 19.5850633,17.7699867 19.8687647,17.92472 C19.9098403,17.94712 20.5737468,18.3070533 21.3696281,18.6153867 C21.3171388,18.65992 21.2556964,18.6987867 21.1818835,18.7316533 C20.6157108,18.9825867 19.6049518,18.83192 18.7175561,18.3968533 C18.7222036,18.3832533 18.7276712,18.37032 18.7320453,18.35652 C19.0036496,17.4913867 18.8051748,16.6648533 18.2141245,16.1992533 C17.8613942,15.9213867 17.4192,15.8114533 16.9508295,15.87032 C16.940236,15.2279867 16.6071209,14.6032533 16.064459,14.2503867 C15.7515741,14.04692 15.4055417,13.95432 15.0555453,13.9716533 C14.9844662,13.64532 14.8195489,13.3407867 14.5603151,13.08792 C13.9931856,12.5348533 13.1586209,12.41992 12.4494698,12.7848533 C12.4001245,12.53172 12.2876281,12.28772 12.1139626,12.0701867 C11.6507863,11.4901867 10.8706928,11.2204533 10.0783655,11.36632 C9.71312806,11.43352 9.3837036,11.5624533 9.09091223,11.7503867 C8.6989518,11.4574533 8.29653453,11.28572 7.96369281,11.1851867 L10.1292144,5.25912 C10.5800885,5.43245333 10.995218,5.49892 11.376995,5.49892 C12.1123906,5.49878667 12.7243547,5.25252 13.2296317,5.04905333 C13.3649554,4.99458667 13.4926928,4.94318667 13.6166029,4.89832 C14.8028043,4.46905333 16.1338978,4.27585333 17.088477,4.24418667 C17.0585417,4.26592 17.0287432,4.28765333 16.9979878,4.30932 C16.5704878,4.60992 16.1835165,4.84012 15.8421317,5.04325333 C15.3216137,5.35292 14.8721065,5.62038667 14.5432288,5.99052 C14.2761353,6.29105333 14.2466101,6.72872 14.2090201,7.28265333 C14.1558475,8.06818667 14.082923,9.14378667 13.3119878,9.98185333 C13.1174086,10.1933867 13.1107791,10.5119867 13.2963367,10.7310533 C13.7940273,11.3182533 14.4574554,11.64092 15.1487683,11.64092 C15.2372072,11.64092 15.3262612,11.6356533 15.4154518,11.6247867 C16.7529014,11.46432 17.7018079,10.16812 18.2838367,9.03798667 C18.604718,8.89765333 19.3733978,8.58165333 20.1085201,8.28512 C21.258977,8.54205333 21.7675345,9.10278667 22.4032144,9.80458667 C23.3611424,10.8622533 24.550146,12.17492 28.1903547,12.6580533 C28.3681209,12.83292 28.2820741,13.06652 28.2476281,13.14072 Z M16.8131137,18.4755867 C16.4854662,18.44692 16.1900094,18.2699867 16.1606892,18.08712 C16.3726964,17.80572 16.5446532,17.4950533 16.6760129,17.15632 C17.0063259,16.97632 17.2973403,16.9529867 17.4745597,17.0925867 C17.6806209,17.25492 17.7324266,17.6190533 17.6063978,18.02032 C17.4617108,18.4812533 17.0027036,18.49212 16.8131137,18.4755867 Z M14.8467504,17.8026533 C14.6508727,17.9756533 14.139718,18.0052533 13.7743439,17.7840533 C13.5157252,17.62752 13.4180597,17.3997867 13.4765633,17.09072 C14.0877072,16.5200533 14.453218,15.9315867 14.7209266,15.50032 L14.7719806,15.4181867 C14.8224194,15.3372533 14.8653403,15.25492 14.9039554,15.17212 C15.0863007,15.0918533 15.2532,15.10272 15.4116928,15.2057867 C15.6626568,15.36892 15.8119914,15.7083867 15.7667468,16.0127867 C15.655754,16.7594533 15.3463547,17.3615867 14.8467504,17.8026533 Z M11.6175022,16.2446533 C11.4884662,16.1308533 11.1034086,15.71432 11.5656964,15.1286533 C12.0178691,14.5557867 12.3904194,14.1583867 12.9566604,13.8223867 C13.2738511,13.6342533 13.5629518,13.7389867 13.7278007,13.89992 C13.8172647,13.9871867 14.0842216,14.31132 13.7660741,14.8215867 L13.7136532,14.9058533 C13.4639194,15.30852 13.1528799,15.80972 12.6416568,16.2812533 C12.2626137,16.6308533 11.8195309,16.4226533 11.6175022,16.2446533 Z M9.7848223,14.2240533 L9.78092662,14.2240533 C9.58662086,14.2240533 9.35458849,14.06852 9.22773957,13.8526533 C9.14415324,13.71032 9.07416763,13.4922533 9.21584748,13.26232 C9.48546978,12.8245867 9.82883669,12.5806533 10.2963871,12.4945867 C10.3671245,12.4815867 10.4347863,12.47572 10.4990993,12.47572 C10.824423,12.47572 11.0660237,12.62652 11.185218,12.7758533 C11.2746137,12.8877867 11.3584734,13.06912 11.2503511,13.2966533 C10.9576964,13.9133867 10.478254,14.21672 9.7848223,14.2240533 Z M6.44492302,11.9213867 L4.93524317,11.1768533 L7.58628993,3.91192 L9.07471439,4.72498667 L6.62815683,11.4202533 C6.62617482,11.42532 6.62419281,11.4304533 6.62248417,11.4356533 L6.44492302,11.9213867 Z M37.9262144,11.1285867 C37.8072252,10.8335867 37.4654302,10.68852 37.1630705,10.8045867 L34.1487,11.96132 L31.0387144,3.43892 L36.1020094,1.11652 C36.3960993,0.981586667 36.5224698,0.639586667 36.3842072,0.352653333 C36.2457396,0.0656533333 35.8950597,-0.05748 35.6011065,0.0773866667 L30.0547468,2.62132 C30.0477755,2.62458667 30.0412827,2.62838667 30.0343799,2.63185333 C30.0288439,2.63465333 30.0231712,2.63692 30.0176353,2.63992 L27.7206173,3.89472 C24.707682,2.86385333 21.1231065,2.25285333 19.6222432,2.52498667 C19.1589302,2.60912 18.7746928,2.86052 18.3793151,3.18158667 C17.2087647,2.94345333 14.8874842,3.21365333 13.207146,3.82185333 C13.0632108,3.87398667 12.9194806,3.93185333 12.7805345,3.98778667 C11.9446712,4.32418667 11.2228763,4.61492 10.094905,3.96652 C10.0934014,3.96565333 10.0918295,3.96505333 10.0903259,3.96418667 C10.0880705,3.96292 10.0859518,3.96138667 10.0836281,3.96012 L7.55321079,2.57785333 C7.54787986,2.57498667 7.54241223,2.57278667 7.53701295,2.57005333 C7.53113525,2.56705333 7.52546259,2.56365333 7.51937986,2.56078667 L3.01590144,0.46192 C2.72276835,0.32512 2.3712,0.446253333 2.23116043,0.732386667 C2.09098417,1.01845333 2.21509928,1.36118667 2.50843741,1.49785333 L6.53329353,3.37372 L3.42781871,11.8836533 L0.819077698,10.80152 C0.519793525,10.6773867 0.174239568,10.81332 0.0471172662,11.1050533 C-0.0800733813,11.3968533 0.0592143885,11.7339867 0.358361871,11.8580533 L3.54236547,13.17892 C3.61597338,13.2094533 3.69429712,13.2246533 3.77268921,13.2246533 C3.8532,13.2246533 3.93377914,13.2085867 4.00909568,13.1763867 C4.15767842,13.1127867 4.2727036,12.9921867 4.32717482,12.8431867 L4.53726835,12.26732 L6.50971439,13.2400533 C6.59289065,13.2810533 6.68392662,13.30172 6.77516763,13.30172 C6.84918561,13.30172 6.92340863,13.2880533 6.99366763,13.2606533 C7.15052014,13.19952 7.27292662,13.07552 7.32965324,12.92032 L7.56858849,12.2663867 C7.76603813,12.32192 8.01433669,12.4178533 8.26386547,12.5829867 C8.24472878,12.6120533 8.22538705,12.6408533 8.20693381,12.67092 C7.8768259,13.2068533 7.87662086,13.8619867 8.20638705,14.42352 C8.54585827,15.00132 9.16253813,15.3721867 9.78133669,15.3721867 L9.79767122,15.3721867 C9.93525036,15.3707867 10.0690022,15.3607867 10.1991317,15.34352 C10.1638655,15.5281867 10.1571676,15.7154533 10.1805417,15.90272 C10.2366532,16.3539867 10.4667719,16.7778533 10.8283187,17.09652 C11.2459086,17.46472 11.7114086,17.6194533 12.1530561,17.6194533 C12.2086209,17.6194533 12.2637072,17.6166533 12.3182468,17.61192 C12.4128367,18.0813867 12.6981784,18.48392 13.1537,18.75972 C13.5171604,18.97972 13.9458906,19.08812 14.3616353,19.08812 C14.6854554,19.08812 15.0003223,19.0208533 15.2715849,18.8908533 C15.5758583,19.28972 16.0935058,19.5653867 16.7078619,19.6192533 C16.7788727,19.6254533 16.8487899,19.62852 16.9178187,19.62852 C17.3246101,19.62852 17.6938799,19.5208533 17.9977432,19.3262533 C18.8092072,19.7645867 19.7014554,19.9999867 20.4878367,19.9999867 C20.9250417,19.9999867 21.3295777,19.92732 21.6690489,19.7768533 C22.062923,19.60212 22.3615237,19.32752 22.5470129,18.9794533 C22.5636209,18.9829867 22.5803655,18.9867867 22.596905,18.99012 C22.7834878,19.0271867 22.9700705,19.0454533 23.1539878,19.0454533 C23.8569878,19.0454533 24.5210309,18.7795867 25.0008151,18.2901867 C25.296477,17.98852 25.4872971,17.6355867 25.5603583,17.2772533 C26.4586209,17.19412 27.0883547,16.7441867 27.4192144,16.2475867 C27.7115957,15.8090533 27.8018799,15.3058533 27.6959446,14.8406533 C28.5447935,14.62552 29.0785705,14.1342533 29.3198978,13.61432 C29.6071532,12.9954533 29.4896676,12.3267867 29.0476101,11.87332 L29.5572612,12.19452 C29.5572612,12.19452 29.552477,12.20372 29.5394914,12.21932 C29.5407216,12.2178533 29.6281353,12.1154533 29.8747935,11.9795867 L30.2412612,12.9823867 C30.2979878,13.1375867 30.4203259,13.2615867 30.5772468,13.32272 C30.6474374,13.35012 30.7215921,13.36372 30.7956101,13.36372 C30.8869194,13.36372 30.9778871,13.34312 31.0612,13.30192 L33.0335094,12.32932 L33.2436029,12.9051867 C33.2971173,13.05172 33.4092036,13.1708533 33.5543007,13.2351867 C33.631736,13.26952 33.7149122,13.28672 33.7981568,13.28672 C33.871218,13.28672 33.9442791,13.2735867 34.013718,13.2469867 L37.5940561,11.8729867 C37.8964842,11.7570533 38.0451353,11.42372 37.9262144,11.1285867 Z" id="Fill-1"></path>
            </g>
        </g>
    </g>
</svg>