<?xml version="1.0" encoding="UTF-8"?>
<svg width="16px" height="16px" viewBox="0 0 16 16" version="1.1" xmlns="http://www.w3.org/2000/svg" xmlns:xlink="http://www.w3.org/1999/xlink">
    <!-- Generator: Sketch 48.2 (47327) - http://www.bohemiancoding.com/sketch -->
    <title>LinkedIn_1_</title>
    <desc>Created with Sketch.</desc>
    <defs></defs>
    <g id="Team-Members" stroke="none" stroke-width="1" fill="none" fill-rule="evenodd" transform="translate(-372.000000, -702.000000)">
        <g id="LinkedIn_1_" transform="translate(372.000000, 702.000000)" fill="#000000" fill-rule="nonzero">
            <path d="M15.9979152,9.38157638 L15.9979152,15.2965764 L12.5679152,15.2965764 L12.5679152,9.77557638 C12.5679152,8.38757638 12.0729152,7.44357638 10.8309152,7.44357638 C10.0383963,7.44730953 9.33381431,7.94892388 9.07091524,8.69657638 C8.98282424,8.96645142 8.94387371,9.24994359 8.95591524,9.53357638 L8.95591524,15.2955764 L5.52591524,15.2955764 C5.52591524,15.2955764 5.57091524,5.94657638 5.52591524,4.97957638 L8.95591524,4.97957638 L8.95591524,6.44257638 L8.93391524,6.47557638 L8.95591524,6.47557638 L8.95591524,6.44257638 C9.58869418,5.34391771 10.7802081,4.68860435 12.0469152,4.74257638 C14.3049152,4.73857638 15.9979152,6.21157638 15.9979152,9.38157638 Z M1.93991524,0.00657638039 C1.27238343,-0.0507551529 0.628864502,0.270124871 0.272967908,0.837771974 C-0.0829286861,1.40541908 -0.0914021419,2.12445232 0.251018586,2.70032875 C0.593439313,3.27620519 1.22921775,3.6121611 1.89791524,3.57057638 L1.91791524,3.57057638 C2.58903418,3.62971106 3.23641816,3.30658329 3.59257987,2.7347036 C3.94874158,2.16282391 3.95320783,1.43929255 3.60413323,0.863059548 C3.25505864,0.286826546 2.61171307,-0.0442686901 1.93991524,0.00657638039 Z M0.197915241,15.2955764 L3.62791524,15.2955764 L3.62791524,4.98057638 L0.197915241,4.98057638 L0.197915241,15.2955764 Z"></path>
        </g>
    </g>
</svg>