<?xml version="1.0" encoding="UTF-8"?>
<svg width="89px" height="72px" viewBox="0 0 89 72" version="1.1" xmlns="http://www.w3.org/2000/svg" xmlns:xlink="http://www.w3.org/1999/xlink">
    <!-- Generator: Sketch 48.2 (47327) - http://www.bohemiancoding.com/sketch -->
    <title>EETER logo</title>
    <desc>Created with Sketch.</desc>
    <defs></defs>
    <g id="Footer---Project-enquire-opened" stroke="none" stroke-width="1" fill="none" fill-rule="evenodd" transform="translate(-1183.000000, -60.000000)">
        <g id="Group-2" transform="translate(204.000000, 60.000000)" fill="#000000">
            <g id="Group">
                <g id="Page-1">
                    <g id="Group-3">
                        <g id="Group-6">
                            <g id="EETER-logo" transform="translate(979.000000, 0.000000)">
                                <polygon id="Fill-1" points="69.7821873 9.15254237e-05 69.7821873 8.42165085 61.9294613 3.93019322 58.4035983 10.1057186 66.5766634 14.7579559 58.4035983 19.4901254 61.9294613 25.6659559 69.7821873 21.1744983 69.7821873 29.6762949 77.5547524 29.6762949 77.5547524 21.1744983 85.4074784 25.6659559 88.9333414 19.4901254 80.7599716 14.7579559 88.9333414 10.1057186 85.4074784 3.93019322 77.5547524 8.42165085 77.5547524 9.15254237e-05"></polygon>
                                <polygon id="Fill-2" points="0 9.15254237e-05 0 71.8795831 43.8044589 71.8795831 43.8044589 58.5306 16.619226 58.5306 16.619226 42.7171424 43.8044589 42.7171424 43.8044589 29.6762949 16.619226 29.6762949 16.619226 13.3487695 43.8044589 13.3487695 43.8044589 9.15254237e-05"></polygon>
                            </g>
                        </g>
                    </g>
                </g>
            </g>
        </g>
    </g>
</svg>