<?xml version="1.0" encoding="UTF-8"?>
<svg width="32px" height="17px" viewBox="0 0 32 17" version="1.1" xmlns="http://www.w3.org/2000/svg" xmlns:xlink="http://www.w3.org/1999/xlink">
    <!-- Generator: Sketch 48.2 (47327) - http://www.bohemiancoding.com/sketch -->
    <title>Fill 1</title>
    <desc>Created with Sketch.</desc>
    <defs></defs>
    <g id="Landing" stroke="none" stroke-width="1" fill="none" fill-rule="evenodd" transform="translate(-230.000000, -870.000000)">
        <g id="Page-1" transform="translate(230.000000, 870.000000)" fill="#000000">
            <g id="Fill-1">
                <path d="M5.79651429,-0.000534285714 L-0.000485714286,16.4578943 L2.73894286,16.4578943 L3.99208571,12.6134657 L10.2820857,12.6134657 L11.5619429,16.4578943 L14.3888,16.4578943 L8.5918,-0.000534285714 L5.79651429,-0.000534285714 Z M5.41522857,8.30032286 L7.13708571,2.70732286 L8.85408571,8.30032286 L9.58265714,10.51518 L4.68908571,10.51518 L5.41522857,8.30032286 Z"></path>
                <path d="M27.1849429,13.54458 L27.1849429,11.5652943 C27.1849429,11.5652943 25.6112286,11.3612943 23.8335143,11.3612943 C22.0582286,11.3612943 20.8633714,11.7692943 20.8633714,13.0491514 C20.8633714,14.2731514 21.7668,14.7370086 22.9883714,14.7370086 C25.6112286,14.7370086 27.1849429,13.54458 27.1849429,13.54458 M18.4178,13.0782943 C18.4178,10.3121514 21.0090857,9.46458 23.5129429,9.46458 C25.3489429,9.46458 27.1849429,9.93329429 27.1849429,9.93329429 L27.1849429,8.85500857 C27.1849429,7.01900857 26.8619429,5.44772286 24.1540857,5.44772286 C22.1748,5.44772286 21.0382286,6.31958 21.0382286,8.03900857 L18.7675143,8.03900857 C18.7675143,4.42772286 21.7376571,3.43686571 24.2415143,3.43686571 C27.5929429,3.43686571 29.5722286,5.00815143 29.5722286,8.41786571 L29.5722286,14.0982943 C29.5722286,14.5937229 29.7470857,14.7370086 30.3008,14.7370086 C30.7938,14.7370086 31.6705143,14.56458 31.6705143,14.56458 L31.6705143,16.2524371 C31.6705143,16.2524371 30.5048,16.7478657 29.3682286,16.7478657 C27.8819429,16.7478657 27.5346571,15.87358 27.5346571,15.0284371 L27.5346571,14.6520086 C27.5346571,14.6520086 26.2232286,16.7478657 22.6702286,16.7478657 C20.3388,16.7478657 18.4178,15.66958 18.4178,13.0782943" id="Fill-2"></path>
            </g>
        </g>
    </g>
</svg>