<?xml version="1.0" encoding="UTF-8"?>
<svg width="34px" height="18px" viewBox="0 0 34 18" version="1.1" xmlns="http://www.w3.org/2000/svg" xmlns:xlink="http://www.w3.org/1999/xlink">
    <!-- Generator: Sketch 48.2 (47327) - http://www.bohemiancoding.com/sketch -->
    <title>Eye</title>
    <desc>Created with Sketch.</desc>
    <defs></defs>
    <g id="Landing" stroke="none" stroke-width="1" fill="none" fill-rule="evenodd" transform="translate(-331.000000, -870.000000)">
        <g id="Eye" transform="translate(331.000000, 870.000000)" fill="#000000">
            <path d="M16.999517,5.47669565 C15.0831534,5.47669565 13.5222443,7.05756522 13.5222443,8.99843478 C13.5222443,10.9393043 15.0831534,12.5201739 16.999517,12.5201739 C18.902358,12.5201739 20.4767898,10.9393043 20.4767898,8.99843478 C20.4767898,7.05756522 18.902358,5.47669565 16.999517,5.47669565 M22.3116307,2.30165217 C26.4182898,3.43878261 29.9094716,5.83708696 32.2365398,8.99843478 C29.8955625,12.1597826 26.4182898,14.5584783 22.3116307,15.6952174 C24.2419034,14.1147391 25.5010625,11.7023478 25.5010625,8.99843478 C25.5010625,6.29452174 24.2419034,3.88213043 22.3116307,2.30165217 M11.6877898,2.30165217 C9.74399432,3.88213043 8.49797159,6.29452174 8.49797159,8.99843478 C8.49797159,11.7023478 9.74399432,14.1147391 11.6877898,15.6952174 C7.58074432,14.5584783 4.08994886,12.1597826 1.76249432,8.99843478 C4.08994886,5.83708696 7.58074432,3.43878261 11.6877898,2.30165217 M16.999517,1.95495652 C20.8465398,1.95495652 23.9540625,5.10221739 23.9540625,8.99843478 C23.9540625,12.8946522 20.8465398,16.041913 16.999517,16.041913 C13.1389716,16.041913 10.0449716,12.8946522 10.0449716,8.99843478 C10.0449716,5.10221739 13.1389716,1.95495652 16.999517,1.95495652 M16.999517,0 C9.90819886,0 3.66533523,3.38282609 0.133585227,8.541 C-0.0445284091,8.79026087 -0.0445284091,9.17843478 0.133585227,9.44217391 C3.66533523,14.5858696 9.90819886,17.9968696 16.999517,17.9968696 C24.0773125,17.9968696 30.3336989,14.5858696 33.8658352,9.44217391 C34.0300398,9.19252174 34.0439489,8.80434783 33.8658352,8.541 C30.3336989,3.38282609 24.0773125,0 16.999517,0" id="Fill-1"></path>
        </g>
    </g>
</svg>