<?xml version="1.0" standalone="no"?>
<!DOCTYPE svg PUBLIC "-//W3C//DTD SVG 1.1//EN" "http://www.w3.org/Graphics/SVG/1.1/DTD/svg11.dtd" >
<svg xmlns="http://www.w3.org/2000/svg">
<metadata></metadata>
<defs>
<font id="galano_grotesqueregular" horiz-adv-x="1644" >
<font-face units-per-em="2048" ascent="1638" descent="-410" />
<missing-glyph horiz-adv-x="516" />
<glyph unicode="&#xfb01;" horiz-adv-x="1269" d="M41 879v131h176v149q0 160 94 255t254 95q104 0 189 -49l-41 -127q-65 35 -138 35q-94 0 -148 -56t-54 -153v-149h700v-1010h-158v879h-542v-879h-156v879h-176zM887 1315q0 42 30.5 73t75.5 31t77 -31t32 -73q0 -44 -31.5 -74.5t-77.5 -30.5q-45 0 -75.5 30t-30.5 75z " />
<glyph unicode="&#xfb02;" horiz-adv-x="1245" d="M41 879v131h176v149q0 160 94 255t252 95q93 0 164 -36l-39 -127q-58 22 -115 22q-92 0 -146 -56t-54 -153v-149h366v-131h-366v-879h-156v879h-176zM909 0v1475h156v-1475h-156z" />
<glyph horiz-adv-x="0" />
<glyph horiz-adv-x="682" />
<glyph unicode=" "  horiz-adv-x="516" />
<glyph unicode="&#x09;" horiz-adv-x="516" />
<glyph unicode="&#xa0;" horiz-adv-x="516" />
<glyph unicode="!" horiz-adv-x="550" d="M170 96q0 42 30.5 73.5t75.5 31.5t76 -31.5t31 -73.5q0 -43 -30.5 -72.5t-76.5 -29.5q-45 0 -75.5 29.5t-30.5 72.5zM193 1309v63h169v-63l-6 -901h-159z" />
<glyph unicode="&#x22;" horiz-adv-x="692" d="M113 803v569h159v-569h-159zM420 803v569h160v-569h-160z" />
<glyph unicode="#" horiz-adv-x="1390" d="M59 350l35 133h219l97 379h-222l37 133h217l97 377h141l-96 -377h385l94 377h141l-94 -377h221l-39 -133h-217l-94 -379h219l-37 -133h-217l-88 -350h-141l88 350h-385l-88 -350h-142l89 350h-220zM455 483h385l94 379h-383z" />
<glyph unicode="$" horiz-adv-x="1204" d="M106 426l158 33q11 -121 88.5 -194t194.5 -93v463l-92 20q-141 29 -226.5 106.5t-85.5 215.5q0 156 109.5 255.5t288.5 113.5v231h137v-236q168 -20 274.5 -120t120.5 -248l-155 -31q-9 108 -76.5 175t-169.5 87v-446l102 -23q320 -67 320 -332q0 -162 -114.5 -262.5 t-301.5 -111.5v-234h-137v238q-179 23 -300.5 127t-134.5 266zM305 987q0 -81 49.5 -123.5t143.5 -64.5l49 -13v424q-110 -12 -176 -72t-66 -151zM672 166q123 9 195.5 71.5t72.5 159.5q0 83 -51.5 128.5t-153.5 66.5l-63 14v-440z" />
<glyph unicode="%" horiz-adv-x="1734" d="M102 1071q0 147 99.5 237.5t238.5 90.5t237.5 -90.5t98.5 -237.5q0 -142 -99 -232.5t-237 -90.5t-238 90.5t-100 232.5zM221 1073q0 -96 65.5 -155.5t153.5 -59.5q86 0 150.5 59.5t64.5 155.5t-64.5 155.5t-150.5 59.5q-88 0 -153.5 -59.5t-65.5 -155.5zM285 0l1026 1372 h112l-1026 -1372h-112zM958 299q0 147 99.5 237.5t238.5 90.5t237.5 -90.5t98.5 -237.5q0 -142 -99 -234t-237 -92t-238 92t-100 234zM1077 301q0 -96 65.5 -155.5t153.5 -59.5q86 0 150.5 59.5t64.5 155.5t-64.5 155.5t-150.5 59.5q-88 0 -153.5 -59.5t-65.5 -155.5z" />
<glyph unicode="&#x26;" horiz-adv-x="1456" d="M131 383q0 123 71.5 219t192.5 154q-116 133 -116 282q0 160 111 260.5t284 100.5q168 0 273.5 -96.5t127.5 -264.5l-147 -28q-11 131 -79 193.5t-175 62.5t-175.5 -63t-68.5 -167q0 -97 65.5 -181.5t231.5 -219.5l324 -270q49 107 49 243v88h139v-88q0 -192 -78 -338 l244 -202l-92 -109l-232 197q-84 -90 -198.5 -136.5t-243.5 -46.5q-229 0 -368.5 112.5t-139.5 297.5zM283 383q0 -124 98 -199t258 -75q94 0 180.5 35.5t151.5 103.5l-363 307q-82 67 -123 104q-95 -43 -148.5 -115t-53.5 -161z" />
<glyph unicode="'" horiz-adv-x="385" d="M113 803v569h159v-569h-159z" />
<glyph unicode="(" horiz-adv-x="722" d="M113 686q0 499 387 854l110 -98q-180 -177 -254.5 -358.5t-74.5 -397.5t74.5 -397.5t254.5 -360.5l-110 -96q-387 355 -387 854z" />
<glyph unicode=")" horiz-adv-x="722" d="M113 -72q180 179 254.5 360.5t74.5 397.5t-74.5 397.5t-254.5 358.5l110 98q387 -355 387 -854t-387 -854z" />
<glyph unicode="*" horiz-adv-x="874" d="M86 973l246 141l-246 141l53 91l242 -140v269h113v-269l241 140l53 -91l-245 -141l245 -141l-53 -90l-241 139v-270h-113v270l-242 -139z" />
<glyph unicode="+" horiz-adv-x="1187" d="M143 555v139h381v385h140v-385h380v-139h-380v-385h-140v385h-381z" />
<glyph unicode="," horiz-adv-x="430" d="M31 -270l135 538h184v-4l-196 -534h-123z" />
<glyph unicode="-" horiz-adv-x="907" d="M123 455v137h661v-137h-661z" />
<glyph unicode="." horiz-adv-x="417" d="M102 96q0 42 31 73.5t76 31.5t75.5 -31.5t30.5 -73.5q0 -43 -30.5 -72.5t-75.5 -29.5q-46 0 -76.5 29.5t-30.5 72.5z" />
<glyph unicode="/" horiz-adv-x="753" d="M16 -147l590 1665h133l-589 -1665h-134z" />
<glyph unicode="0" horiz-adv-x="1361" d="M113 686q0 210 71 372t200.5 251.5t297.5 89.5q254 0 410.5 -197t156.5 -516q0 -211 -70.5 -373t-199.5 -251t-297 -89t-297.5 89t-200.5 251t-71 373zM276 686q0 -252 111 -406.5t295 -154.5q182 0 292.5 154.5t110.5 406.5q0 253 -110.5 408t-292.5 155 q-184 0 -295 -155t-111 -408z" />
<glyph unicode="1" horiz-adv-x="727" d="M25 973v149l424 250h100v-1372h-158v1178z" />
<glyph unicode="2" horiz-adv-x="1054" d="M55 961q7 199 134.5 318.5t330.5 119.5q202 0 327.5 -116t125.5 -304q0 -75 -19 -137.5t-65 -128t-97 -119.5t-141 -139l-329 -308h665v-147h-924v104l490 457q59 53 89.5 82.5t70 74.5t58.5 80t32.5 81.5t13.5 97.5q0 126 -82.5 203t-216.5 77q-141 0 -224 -85.5 t-89 -241.5z" />
<glyph unicode="3" horiz-adv-x="1200" d="M115 420l151 31q11 -154 102.5 -244t245.5 -90q142 0 231 75t89 199q0 114 -81 177t-224 63h-191v141h180q132 0 209.5 61t77.5 166q0 116 -82 186t-217 70q-141 0 -227.5 -83t-95.5 -234l-150 29q14 194 142 313t333 119q201 0 324 -110.5t123 -289.5q0 -109 -55 -186.5 t-152 -110.5q110 -31 171.5 -111.5t61.5 -197.5q0 -189 -129 -304.5t-338 -115.5q-216 0 -351.5 123t-147.5 324z" />
<glyph unicode="4" horiz-adv-x="1269" d="M72 330v155l716 887h205v-909h213v-133h-213v-330h-157v330h-764zM248 463h588v739z" />
<glyph unicode="5" horiz-adv-x="1153" d="M84 444l156 31q0 -166 95 -260t247 -94q146 0 235.5 81t89.5 214q0 131 -83 199.5t-226 68.5h-432l31 688h811v-145h-662l-20 -398h284q208 0 329.5 -107.5t121.5 -303.5q0 -198 -132 -321.5t-349 -123.5q-141 0 -252.5 55t-177 163t-66.5 253z" />
<glyph unicode="6" horiz-adv-x="1247" d="M113 649q0 408 186 600q147 150 363 150q162 0 278.5 -78.5t157.5 -222.5l-156 -31q-57 188 -287 188q-155 0 -252 -108q-149 -161 -137 -479q52 99 162 159t238 60q214 0 341.5 -127t127.5 -324q0 -201 -133.5 -332t-348.5 -131q-255 0 -397.5 178.5t-142.5 497.5z M322 432q0 -136 95 -223.5t234 -87.5q140 0 232 91t92 226q0 134 -92 224t-232 90q-146 0 -237.5 -93t-91.5 -227z" />
<glyph unicode="7" horiz-adv-x="1013" d="M47 1227v145h930v-110l-537 -1262h-178l537 1227h-752z" />
<glyph unicode="8" horiz-adv-x="1183" d="M88 362q0 115 75.5 208.5t221.5 131.5q-128 40 -193 129t-65 205q0 163 127.5 263t339.5 100q210 0 337.5 -100t127.5 -263q0 -115 -65.5 -204.5t-194.5 -129.5q147 -38 222 -132t75 -208q0 -174 -138.5 -281.5t-363.5 -107.5q-227 0 -366.5 107.5t-139.5 281.5zM266 369 q0 -118 90.5 -187t235.5 -69q143 0 235.5 70t92.5 188q0 115 -90 186.5t-238 71.5q-146 0 -236 -71.5t-90 -188.5zM287 1024q-1 -109 83 -175.5t222 -66.5t222.5 68t84.5 176q0 109 -86.5 174.5t-220.5 65.5t-219.5 -65.5t-85.5 -176.5z" />
<glyph unicode="9" horiz-adv-x="1247" d="M113 938q0 200 133.5 330.5t347.5 130.5q256 0 398.5 -178t142.5 -498q0 -408 -187 -600q-147 -150 -362 -150q-162 0 -278.5 79.5t-155.5 223.5l155 29q27 -94 101.5 -141t183.5 -47q151 0 252 108q148 164 137 480q-54 -100 -163 -160t-236 -60q-213 0 -341 127.5 t-128 325.5zM274 936q0 -135 92 -225t232 -90q144 0 237 93.5t93 225.5q0 136 -96.5 224.5t-233.5 88.5q-141 0 -232.5 -91t-91.5 -226z" />
<glyph unicode=":" horiz-adv-x="417" d="M102 96q0 42 31 73.5t76 31.5t75.5 -31.5t30.5 -73.5q0 -43 -30.5 -72.5t-75.5 -29.5q-46 0 -76.5 29.5t-30.5 72.5zM102 842q0 42 31 73t76 31t75.5 -31t30.5 -73q0 -43 -30.5 -73t-75.5 -30t-76 30t-31 73z" />
<glyph unicode=";" horiz-adv-x="473" d="M31 -270l135 538h184v-4l-196 -534h-123zM158 842q0 42 30.5 73t75.5 31t76 -31t31 -73q0 -43 -31 -73t-76 -30t-75.5 30t-30.5 73z" />
<glyph unicode="&#x3c;" horiz-adv-x="894" d="M66 571v156l749 328v-168l-561 -238l561 -239v-164z" />
<glyph unicode="=" horiz-adv-x="1187" d="M143 389v139h901v-139h-901zM143 776v139h901v-139h-901z" />
<glyph unicode="&#x3e;" horiz-adv-x="894" d="M82 246v164l561 239l-561 238v168l752 -328v-156z" />
<glyph unicode="?" horiz-adv-x="1069" d="M72 965q6 187 138.5 310.5t336.5 123.5q205 0 331 -118t126 -310q0 -165 -114 -274t-296 -126v-157h-145v282h88q134 0 223.5 77t89.5 198q0 129 -83 207.5t-220 78.5q-140 0 -227.5 -87.5t-96.5 -233.5zM414 96q0 42 30.5 73.5t75.5 31.5t76 -31.5t31 -73.5 q0 -43 -30.5 -72.5t-76.5 -29.5q-45 0 -75.5 29.5t-30.5 72.5z" />
<glyph unicode="@" horiz-adv-x="1964" d="M133 569q0 236 112 426t307.5 297t436.5 107q233 0 425 -100t304.5 -280.5t112.5 -404.5q0 -71 -11 -137.5t-37 -129t-64 -109.5t-97 -75t-131 -28q-95 0 -156.5 44t-79.5 120q-52 -74 -132.5 -115t-180.5 -41q-175 0 -292.5 116.5t-117.5 303.5q0 125 55.5 222 t148 148.5t204.5 51.5q97 0 176.5 -40.5t132.5 -113.5v138h109v-604q0 -61 41.5 -98.5t105.5 -37.5q55 0 98.5 33.5t69 89t38.5 121.5t13 137q0 150 -57 279.5t-155.5 219t-234 140.5t-288.5 51q-211 0 -382 -94t-268 -261t-97 -374q0 -155 57 -291.5t154.5 -232 t230.5 -150.5t281 -55q124 0 257.5 38t231.5 106l55 -88q-102 -73 -251 -115.5t-291 -42.5q-228 0 -418.5 105.5t-303 296.5t-112.5 427zM657 565q0 -142 87 -228.5t210 -86.5t209 86.5t86 228.5q0 138 -86 223.5t-209 85.5t-210 -84.5t-87 -224.5z" />
<glyph unicode="A" horiz-adv-x="1419" d="M20 0l615 1372h149l615 -1372h-174l-154 348h-723l-153 -348h-175zM412 494h596l-297 677z" />
<glyph unicode="B" horiz-adv-x="1368" d="M180 0v1372h631q191 0 299.5 -98t108.5 -262q0 -125 -69 -209.5t-163 -97.5v-7q120 -14 198.5 -101t78.5 -224q0 -167 -112 -270t-314 -103h-658zM342 139h481q128 0 202.5 68t74.5 180q0 109 -76.5 174.5t-198.5 65.5h-483v-488zM342 758h467q115 0 185.5 68t70.5 178 q0 103 -73 166t-195 63h-455v-475z" />
<glyph unicode="C" horiz-adv-x="1591" d="M113 686q0 196 94 360t258 258.5t360 94.5q236 0 413.5 -124t240.5 -331l-156 -45q-52 164 -185 256t-313 92q-151 0 -277 -73.5t-199 -202.5t-73 -285q0 -116 43 -220t116 -179t175 -118.5t215 -43.5q180 0 312.5 91.5t185.5 258.5l156 -37q-63 -214 -240 -339.5 t-414 -125.5q-196 0 -360 94.5t-258 258.5t-94 360z" />
<glyph unicode="D" horiz-adv-x="1507" d="M180 0v1372h455q177 0 321.5 -52.5t240 -144.5t147 -217.5t51.5 -271.5q0 -145 -52 -270.5t-147 -218t-240 -145t-321 -52.5h-455zM342 147h291q141 0 255.5 41.5t188.5 114.5t114 171t40 212q0 115 -40 213.5t-114 171.5t-188.5 114.5t-255.5 41.5h-291v-1080z" />
<glyph unicode="E" horiz-adv-x="1304" d="M180 0v1372h1000v-145h-838v-465h778v-146h-778v-469h840v-147h-1002z" />
<glyph unicode="F" horiz-adv-x="1208" d="M180 0v1372h983v-145h-821v-479h750v-146h-750v-602h-162z" />
<glyph unicode="G" horiz-adv-x="1628" d="M113 686q0 196 94 360t257.5 258.5t358.5 94.5q227 0 400.5 -105.5t246.5 -292.5l-145 -51q-70 146 -202 221.5t-300 75.5q-113 0 -214.5 -43.5t-174.5 -118.5t-115.5 -179t-42.5 -220q0 -155 73.5 -284t201 -203t280.5 -74q216 0 360 135t169 346h-606v148h759 q3 -41 3 -70q0 -197 -86 -359t-244.5 -257t-358.5 -95q-148 0 -280.5 55.5t-227.5 151t-150.5 227.5t-55.5 279z" />
<glyph unicode="H" horiz-adv-x="1507" d="M180 0v1372h162v-608h823v608h162v-1372h-162v618h-823v-618h-162z" />
<glyph unicode="I" horiz-adv-x="520" d="M180 0v1372h162v-1372h-162z" />
<glyph unicode="J" horiz-adv-x="1218" d="M49 416l154 35q19 -150 110 -240t236 -90q154 0 250 106t96 273v872h162v-872q0 -232 -140.5 -379.5t-367.5 -147.5q-204 0 -338 122t-162 321z" />
<glyph unicode="K" horiz-adv-x="1378" d="M180 0v1372h162v-618h64l673 618h203l-743 -686l788 -686h-219l-690 608h-76v-608h-162z" />
<glyph unicode="L" horiz-adv-x="1200" d="M180 0v1372h162v-1225h786v-147h-948z" />
<glyph unicode="M" horiz-adv-x="1839" d="M180 0v1372h142l598 -1130l598 1130h141v-1372h-156v1028l-540 -1028h-84l-543 1028v-1028h-156z" />
<glyph unicode="N" horiz-adv-x="1556" d="M180 0v1372h139l898 -1102v1102h161v-1372h-139l-897 1090v-1090h-162z" />
<glyph unicode="O" d="M113 686q0 196 93.5 359.5t257 258.5t359.5 95q146 0 277.5 -56t226 -151t150 -227.5t55.5 -278.5q0 -196 -94 -360t-257 -258.5t-358 -94.5q-196 0 -359.5 94.5t-257 258t-93.5 360.5zM276 686q0 -156 72.5 -284.5t198 -201.5t276.5 -73q113 0 213.5 43t173.5 117 t115.5 178t42.5 221q0 155 -72 284t-197.5 203t-275.5 74q-113 0 -214.5 -43.5t-174.5 -118.5t-115.5 -179t-42.5 -220z" />
<glyph unicode="P" horiz-adv-x="1333" d="M180 0v1372h598q218 0 347.5 -117.5t129.5 -308.5t-129.5 -308.5t-347.5 -117.5h-436v-520h-162zM342 666h436q146 0 232 77.5t86 202.5t-86 203t-232 78h-436v-561z" />
<glyph unicode="Q" d="M113 686q0 196 93.5 359.5t257 258.5t359.5 95q146 0 277.5 -56t226 -151t150 -227.5t55.5 -278.5q0 -172 -72.5 -319t-199.5 -246l282 -338l-125 -113l-307 363q-135 -60 -287 -60q-196 0 -359.5 94.5t-257 258t-93.5 360.5zM276 686q0 -156 72.5 -284.5t198 -201.5 t276.5 -73q113 0 213.5 43t173.5 117t115.5 178t42.5 221q0 155 -72 284t-197.5 203t-275.5 74q-113 0 -214.5 -43.5t-174.5 -118.5t-115.5 -179t-42.5 -220z" />
<glyph unicode="R" horiz-adv-x="1372" d="M180 0v1372h635q202 0 325.5 -107t123.5 -284t-124 -285t-325 -108h-24l530 -588h-203l-524 588h-252v-588h-162zM342 735h473q129 0 208 68t79 178t-79 178t-208 68h-473v-492z" />
<glyph unicode="S" horiz-adv-x="1284" d="M106 383l170 35q23 -143 131.5 -222t270.5 -79q155 0 244.5 70.5t89.5 185.5q0 94 -52 141t-172 74l-309 67q-329 73 -329 351q0 177 133.5 285t353.5 108q203 0 340.5 -103t173.5 -274l-162 -37q-23 125 -119 198.5t-237 73.5q-138 0 -224.5 -68.5t-86.5 -178.5 q0 -88 52 -136t154 -69l299 -68q347 -75 347 -356q0 -187 -139.5 -297.5t-370.5 -110.5q-146 0 -266 47.5t-198 141.5t-94 221z" />
<glyph unicode="T" horiz-adv-x="1284" d="M51 1227v145h1182v-145h-508v-1227h-164v1227h-510z" />
<glyph unicode="U" horiz-adv-x="1476" d="M164 600v772h162v-772q0 -214 113.5 -342.5t301.5 -128.5q185 0 297.5 129t112.5 342v772h162v-772q0 -282 -157 -454.5t-415 -172.5q-259 0 -418 173t-159 454z" />
<glyph unicode="V" horiz-adv-x="1425" d="M37 1372h176l500 -1151l499 1151h177l-598 -1372h-156z" />
<glyph unicode="W" horiz-adv-x="1951" d="M37 1372h168l342 -1124l350 1124h158l350 -1124l342 1124h170l-422 -1372h-170l-348 1114l-350 -1114h-168z" />
<glyph unicode="X" horiz-adv-x="1294" d="M37 0l489 690l-479 682h197l403 -577l404 577h198l-481 -682l492 -690h-199l-414 586l-411 -586h-199z" />
<glyph unicode="Y" horiz-adv-x="1374" d="M37 1372h180l467 -731l467 731h186l-571 -891v-481h-162v479z" />
<glyph unicode="Z" horiz-adv-x="1282" d="M121 0v102l840 1131h-816v139h1024v-117l-821 -1116h830v-139h-1057z" />
<glyph unicode="[" horiz-adv-x="800" d="M180 -168v1686h508v-138h-356v-1413h356v-135h-508z" />
<glyph unicode="\" horiz-adv-x="753" d="M16 1518h134l589 -1665h-133z" />
<glyph unicode="]" horiz-adv-x="800" d="M113 -33h356v1413h-356v138h510v-1686h-510v135z" />
<glyph unicode="^" horiz-adv-x="806" d="M51 934l297 438h111l297 -438h-144l-209 303l-208 -303h-144z" />
<glyph unicode="_" horiz-adv-x="1034" d="M41 -115h952v-133h-952v133z" />
<glyph unicode="`" horiz-adv-x="1228" d="M348 1448h182l162 -287h-135z" />
<glyph unicode="a" horiz-adv-x="1318" d="M78 504q0 155 70.5 277.5t185 187.5t248.5 65q126 0 229.5 -48.5t171.5 -137.5v162h156v-1010h-156v160q-68 -90 -172 -138.5t-229 -48.5q-100 0 -191.5 38.5t-161 106.5t-110.5 168.5t-41 217.5zM229 504q0 -176 108 -283.5t269 -107.5q96 0 181.5 46.5t140.5 138 t55 206.5q0 88 -32 163t-85 124.5t-120.5 77.5t-139.5 28q-161 0 -269 -108t-108 -285z" />
<glyph unicode="b" horiz-adv-x="1329" d="M180 0v1475h156v-627q68 89 171.5 137.5t229.5 48.5q134 0 248.5 -65t185 -187.5t70.5 -277.5q0 -117 -41 -217.5t-110.5 -168.5t-161 -106.5t-191.5 -38.5q-125 0 -229 48.5t-172 138.5v-160h-156zM336 504q0 -115 55 -206.5t140.5 -138t181.5 -46.5q161 0 269 107.5 t108 283.5q0 177 -108 285t-269 108q-72 0 -139.5 -28t-120.5 -77.5t-85 -124.5t-32 -163z" />
<glyph unicode="c" horiz-adv-x="1179" d="M88 504q0 154 72 276.5t191.5 188t262.5 65.5q168 0 301.5 -91.5t178.5 -244.5l-150 -45q-33 114 -123.5 176t-206.5 62q-158 0 -266 -108.5t-108 -278.5q0 -173 107.5 -279t266.5 -106q117 0 207.5 58.5t126.5 168.5l144 -39q-41 -153 -174 -243.5t-304 -90.5 q-107 0 -202.5 38t-167.5 106t-114 168.5t-42 218.5z" />
<glyph unicode="d" horiz-adv-x="1329" d="M88 504q0 155 70.5 277.5t185 187.5t248.5 65q126 0 229.5 -48.5t171.5 -137.5v627h156v-1475h-156v160q-68 -90 -172 -138.5t-229 -48.5q-100 0 -191.5 38.5t-161 106.5t-110.5 168.5t-41 217.5zM240 504q0 -176 107.5 -283.5t268.5 -107.5q96 0 181.5 46.5t140.5 138 t55 206.5q0 88 -32 163t-85 124.5t-120.5 77.5t-139.5 28q-161 0 -268.5 -108t-107.5 -285z" />
<glyph unicode="e" horiz-adv-x="1193" d="M88 502q0 157 72.5 280t191 187.5t258.5 64.5q135 0 246 -62.5t178 -178t72 -263.5v-57h-866q10 -163 116.5 -262.5t243.5 -99.5q248 0 344 217l139 -33q-59 -157 -185 -239.5t-298 -82.5q-135 0 -251 64t-188.5 186.5t-72.5 278.5zM246 590h702q-21 145 -114.5 226 t-223.5 81q-84 0 -160 -34.5t-132.5 -105.5t-71.5 -167z" />
<glyph unicode="f" horiz-adv-x="729" d="M41 879v131h176v149q0 160 94 255t252 95q93 0 164 -36l-39 -127q-58 22 -115 22q-92 0 -146 -56t-54 -153v-149h366v-131h-366v-879h-156v879h-176z" />
<glyph unicode="g" horiz-adv-x="1296" d="M88 549q0 139 69 251t182.5 173t246.5 61q250 0 379 -164v140h151l2 -928q-1 -219 -139 -345t-369 -126q-184 0 -308.5 68t-184.5 194l131 90q57 -106 141.5 -158.5t220.5 -52.5q161 0 258 95t97 255v123q-128 -166 -379 -166q-133 0 -246.5 62t-182.5 175t-69 253z M240 549q0 -158 105.5 -256t262.5 -98q146 0 251.5 99t105.5 255t-105 253t-252 97q-158 0 -263 -96t-105 -254z" />
<glyph unicode="h" horiz-adv-x="1280" d="M180 0v1475h156v-633q128 192 381 192q182 0 293.5 -118.5t111.5 -311.5v-604h-155v575q0 141 -77.5 228.5t-203.5 87.5q-161 0 -255.5 -106.5t-94.5 -299.5v-485h-156z" />
<glyph unicode="i" horiz-adv-x="550" d="M168 1315q0 42 30.5 73t75.5 31t77 -31t32 -73q0 -44 -31.5 -74.5t-77.5 -30.5t-76 30t-30 75zM197 0v1010h157v-1010h-157z" />
<glyph unicode="j" horiz-adv-x="583" d="M-33 -334l35 135q52 -22 96 -22q60 0 96.5 34t36.5 91v1106h158v-1125q0 -115 -70 -184.5t-184 -69.5q-86 0 -168 35zM201 1315q0 42 31 73t77 31q45 0 76 -31t31 -73q0 -44 -30.5 -74.5t-76.5 -30.5q-47 0 -77.5 30t-30.5 75z" />
<glyph unicode="k" horiz-adv-x="1175" d="M180 0v1475h156v-875h76l485 410h203l-574 -490l639 -520h-217l-545 446h-67v-446h-156z" />
<glyph unicode="l" horiz-adv-x="516" d="M180 0v1475h156v-1475h-156z" />
<glyph unicode="m" horiz-adv-x="1937" d="M180 0v1010h156v-154q115 178 344 178q117 0 208.5 -54t135.5 -151q60 96 157.5 150.5t223.5 54.5q162 0 269.5 -106t107.5 -275v-653h-156v627q0 119 -72.5 191.5t-187.5 72.5q-141 0 -225 -99.5t-84 -275.5v-516h-156v627q0 119 -72 191.5t-186 72.5q-141 0 -224 -99 t-83 -276v-516h-156z" />
<glyph unicode="n" horiz-adv-x="1277" d="M180 0v1010h156v-168q128 192 381 192q182 0 293.5 -118.5t111.5 -311.5v-604h-155v575q0 141 -77.5 228.5t-203.5 87.5q-161 0 -255.5 -106.5t-94.5 -299.5v-485h-156z" />
<glyph unicode="o" horiz-adv-x="1245" d="M88 506q0 229 154.5 377.5t382.5 148.5q148 0 269.5 -66.5t193 -187.5t71.5 -272q0 -229 -154.5 -380t-379.5 -151q-112 0 -211 40t-170.5 109.5t-113.5 168.5t-42 213zM240 506q0 -171 112.5 -282t272.5 -111q159 0 270 111t111 282q0 170 -111 279.5t-270 109.5 q-160 0 -272.5 -109.5t-112.5 -279.5z" />
<glyph unicode="p" horiz-adv-x="1329" d="M180 -348v1358h156v-162q68 89 171.5 137.5t229.5 48.5q134 0 248.5 -65t185 -187.5t70.5 -277.5q0 -117 -41 -217.5t-110.5 -168.5t-161 -106.5t-191.5 -38.5q-125 0 -229 48.5t-172 138.5v-508h-156zM336 504q0 -115 55 -206.5t140.5 -138t181.5 -46.5q161 0 269 107.5 t108 283.5q0 177 -108 285t-269 108q-72 0 -139.5 -28t-120.5 -77.5t-85 -124.5t-32 -163z" />
<glyph unicode="q" horiz-adv-x="1329" d="M88 504q0 155 70.5 277.5t185 187.5t248.5 65q126 0 229.5 -48.5t171.5 -137.5v162h156v-1358h-156v508q-68 -90 -172 -138.5t-229 -48.5q-100 0 -191.5 38.5t-161 106.5t-110.5 168.5t-41 217.5zM240 504q0 -176 107.5 -283.5t268.5 -107.5q96 0 181.5 46.5t140.5 138 t55 206.5q0 88 -32 163t-85 124.5t-120.5 77.5t-139.5 28q-161 0 -268.5 -108t-107.5 -285z" />
<glyph unicode="r" horiz-adv-x="843" d="M180 0v1010h158v-248q65 119 168 188.5t237 69.5q43 0 72 -8l-12 -150q-18 2 -60 2q-130 0 -223 -62.5t-137.5 -168.5t-44.5 -244v-389h-158z" />
<glyph unicode="s" horiz-adv-x="1036" d="M94 272l156 35q10 -97 92 -151t205 -54q109 0 175 47t66 125q0 60 -41.5 94t-123.5 52l-232 51q-262 55 -262 258q0 137 105 221t278 84q166 0 274.5 -77t137.5 -203l-150 -33q-15 85 -85.5 135.5t-180.5 50.5q-105 0 -164 -46t-59 -120q0 -57 37.5 -89t115.5 -50 l244 -53q260 -58 260 -264q0 -147 -111 -229.5t-296 -82.5q-180 0 -301.5 78t-139.5 221z" />
<glyph unicode="t" horiz-adv-x="806" d="M0 879v131h219v321h158v-321h360v-131h-360v-553q0 -97 50 -151t136 -54q88 0 172 61l51 -129q-115 -80 -233 -80q-154 0 -244 89t-90 253v564h-219z" />
<glyph unicode="u" horiz-adv-x="1277" d="M156 406v604h157v-576q0 -141 76.5 -227t202.5 -86q161 0 255.5 105t94.5 298v486h158v-1008h-158v164q-62 -92 -159.5 -141.5t-221.5 -49.5q-182 0 -293.5 119t-111.5 312z" />
<glyph unicode="v" horiz-adv-x="1136" d="M37 1010h170l362 -826l361 826h170l-447 -1010h-170z" />
<glyph unicode="w" horiz-adv-x="1574" d="M37 1010h158l260 -783l270 783h125l270 -783l260 783h158l-340 -1014h-145l-265 766l-266 -766h-145z" />
<glyph unicode="x" horiz-adv-x="1183" d="M92 0l385 498l-385 512h189l311 -416l311 416h189l-385 -512l385 -498h-189l-311 403l-311 -403h-189z" />
<glyph unicode="y" horiz-adv-x="1153" d="M37 1010h176l360 -807l369 807h174l-618 -1358h-174l165 362z" />
<glyph unicode="z" horiz-adv-x="1036" d="M82 0v106l657 773h-639v131h834v-109l-658 -770h678v-131h-872z" />
<glyph unicode="{" horiz-adv-x="880" d="M92 614v121l47 10q80 9 127 53.5t47 119.5v342q0 116 73.5 187t193.5 71h188v-136h-170q-60 0 -96.5 -37.5t-36.5 -99.5v-344q0 -81 -36.5 -140t-100.5 -87q64 -28 100.5 -86.5t36.5 -138.5v-345q0 -63 36.5 -101t96.5 -38h170v-133h-188q-120 0 -193.5 70.5t-73.5 187.5 v342q0 74 -47 117.5t-127 54.5z" />
<glyph unicode="|" horiz-adv-x="512" d="M180 -147v1665h152v-1665h-152z" />
<glyph unicode="}" horiz-adv-x="880" d="M113 -35h170q60 0 96.5 38t36.5 101v345q0 80 36.5 138.5t100.5 86.5q-64 28 -100.5 87t-36.5 140v344q0 62 -36.5 99.5t-96.5 37.5h-170v136h188q120 0 193 -71t73 -187v-342q0 -75 47 -119.5t127 -53.5l47 -10v-121l-47 -10q-80 -11 -127 -54.5t-47 -117.5v-342 q0 -117 -73 -187.5t-193 -70.5h-188v133z" />
<glyph unicode="~" horiz-adv-x="974" d="M92 487q0 69 20 122t53 82.5t72 44t82 14.5q44 0 82.5 -13.5t67 -33t55 -39t56.5 -33t61 -13.5q52 0 81.5 35.5t27.5 94.5h137q0 -70 -21 -123.5t-56 -83.5t-75 -45t-84 -15q-53 0 -100.5 20.5t-76.5 45t-67 45t-75 20.5q-54 0 -85 -34.5t-26 -90.5h-129z" />
<glyph unicode="&#xa1;" horiz-adv-x="550" d="M170 930q0 44 30 73t76 29t76.5 -29t30.5 -73q0 -42 -31 -72.5t-76 -30.5t-75.5 30.5t-30.5 72.5zM193 -283l4 901h159l6 -901v-63h-169v63z" />
<glyph unicode="&#xa2;" horiz-adv-x="1179" d="M88 504q0 210 127.5 353.5t319.5 170.5v262h135v-258q151 -15 267 -105t157 -229l-150 -45q-28 100 -103 161t-175 73v-766q100 12 175.5 70t106.5 155l144 -39q-38 -140 -153 -228.5t-269 -103.5v-241h-135v246q-192 27 -319.5 169.5t-127.5 354.5zM240 504 q0 -152 84 -253.5t217 -125.5v760q-132 -25 -216.5 -128.5t-84.5 -252.5z" />
<glyph unicode="&#xa3;" horiz-adv-x="1316" d="M113 0v100l174 35v422h-174v145h174v242q0 203 128 329t335 126q205 0 328.5 -124.5t131.5 -328.5l-151 -31q-7 156 -89.5 242t-219.5 86q-135 0 -218 -82t-83 -217v-242h479v-145h-479v-410h770v-147h-1106z" />
<glyph unicode="&#xa5;" horiz-adv-x="1363" d="M61 1372h181l438 -692l436 692h187l-476 -731h330v-123h-397v-153h397v-123h-397v-242h-162v242h-389v123h389v153h-389v123h321z" />
<glyph unicode="&#xa7;" horiz-adv-x="1089" d="M68 625q0 100 49 168t125 104q-76 79 -76 190q0 144 105 228t274 84q185 0 292.5 -98.5t110.5 -256.5l-139 -28q-3 122 -70.5 189t-185.5 67q-104 0 -169 -52t-65 -137q0 -55 33 -96t107 -74l303 -135q130 -56 188 -124.5t58 -170.5q0 -99 -48 -168t-124 -104 q73 -79 73 -191q0 -143 -105.5 -226t-273.5 -83q-198 0 -307.5 98.5t-109.5 262.5l137 28q5 -129 75 -197.5t199 -68.5q103 0 167.5 53t64.5 138q0 109 -140 172l-303 133q-130 56 -187.5 124.5t-57.5 170.5zM213 635q0 -58 36.5 -100.5t129.5 -85.5l307 -140l41 -20 q68 32 101.5 75.5t33.5 108.5q0 58 -36.5 101.5t-129.5 87.5l-305 137q-19 7 -45 22q-133 -57 -133 -186z" />
<glyph unicode="&#xa8;" horiz-adv-x="1228" d="M305 1286q0 42 31 73.5t76 31.5t76.5 -31.5t31.5 -73.5q0 -44 -31 -74t-77 -30t-76.5 30t-30.5 74zM711 1286q0 42 30.5 73.5t75.5 31.5t77 -31.5t32 -73.5q0 -44 -31.5 -74t-77.5 -30t-76 30t-30 74z" />
<glyph unicode="&#xa9;" horiz-adv-x="1587" d="M80 682q0 204 96.5 369.5t259 256.5t355.5 91q144 0 274.5 -54t226.5 -147.5t152.5 -228t56.5 -287.5q0 -201 -96 -364.5t-258.5 -254t-355.5 -90.5t-355.5 90.5t-259 254t-96.5 364.5zM164 684q0 -135 50 -253t135 -200.5t200 -130t242 -47.5q170 0 313 80.5t228 226 t85 324.5q0 181 -85 328t-228 228t-313 81t-313 -81t-228.5 -228t-85.5 -328zM416 686q0 169 113 277t274 108q143 0 243 -76.5t119 -195.5l-108 -23q-21 85 -92.5 137t-161.5 52q-115 0 -193 -78.5t-78 -200.5q0 -123 77.5 -201.5t193.5 -78.5q92 0 164 53t90 141l108 -20 q-20 -124 -119.5 -202.5t-242.5 -78.5q-161 0 -274 108t-113 279z" />
<glyph unicode="&#xaa;" horiz-adv-x="792" d="M104 891q0 92 76.5 146.5t210.5 54.5h187v36q0 71 -43 113.5t-115 42.5q-139 0 -172 -139l-107 24q21 103 94 156t179 53q128 0 205 -66t77 -190v-420h-118v80q-82 -96 -238 -96q-106 0 -171 56.5t-65 148.5zM225 891q0 -53 38 -84t102 -31q93 0 153 52.5t60 132.5v51 h-177q-84 0 -130 -32.5t-46 -88.5z" />
<glyph unicode="&#xab;" horiz-adv-x="849" d="M51 537l250 364h160l-250 -364l250 -365h-160zM389 537l250 364h160l-250 -364l250 -365h-160z" />
<glyph unicode="&#xad;" horiz-adv-x="907" d="M123 455v137h661v-137h-661z" />
<glyph unicode="&#xae;" horiz-adv-x="1024" d="M102 987q0 178 119.5 295t290.5 117t290.5 -117t119.5 -295q0 -176 -119.5 -292.5t-290.5 -116.5t-290.5 116.5t-119.5 292.5zM162 987q0 -151 102 -251.5t248 -100.5q148 0 250 100.5t102 251.5q0 154 -102 255t-250 101q-147 0 -248.5 -101.5t-101.5 -254.5zM367 805 v387h170q69 0 110 -34t41 -91q0 -47 -31 -81.5t-82 -43.5l136 -137h-74l-129 133h-84v-133h-57zM424 991h111q43 0 69.5 21t26.5 55t-25.5 54t-68.5 20h-113v-150z" />
<glyph unicode="&#xaf;" horiz-adv-x="1228" d="M324 1196v127h581v-127h-581z" />
<glyph unicode="&#xb0;" horiz-adv-x="833" d="M139 1126q0 121 81.5 197t197.5 76t197 -76t81 -197q0 -119 -81 -193.5t-197 -74.5t-197.5 75t-81.5 193zM252 1128q0 -74 50 -120.5t116 -46.5t116 46.5t50 120.5t-50 121t-116 47t-116 -47t-50 -121z" />
<glyph unicode="&#xb1;" horiz-adv-x="1187" d="M143 0v139h901v-139h-901zM143 668v139h381v364h140v-364h380v-139h-380v-344h-140v344h-381z" />
<glyph unicode="&#xb4;" horiz-adv-x="1228" d="M506 1161l164 287h182l-209 -287h-137z" />
<glyph unicode="&#xb6;" horiz-adv-x="1148" d="M41 999q0 181 107.5 277t291.5 96h256v-1372h-125v612h-102q-186 0 -307 105.5t-121 281.5zM844 0v1372h125v-1372h-125z" />
<glyph unicode="&#xb7;" horiz-adv-x="417" d="M102 539q0 42 31 73t76 31t75.5 -31t30.5 -73q0 -43 -30.5 -73t-75.5 -30t-76 30t-31 73z" />
<glyph unicode="&#xb8;" horiz-adv-x="1228" d="M393 -348l207 348h121l-158 -348h-170z" />
<glyph unicode="&#xba;" horiz-adv-x="899" d="M96 1032q0 151 104.5 248.5t248.5 97.5q148 0 251 -97t103 -249t-103 -249t-251 -97q-144 0 -248.5 97.5t-104.5 248.5zM217 1032q0 -102 69.5 -169.5t162.5 -67.5q97 0 166 67.5t69 169.5t-69 170t-166 68q-93 0 -162.5 -68t-69.5 -170z" />
<glyph unicode="&#xbb;" horiz-adv-x="849" d="M51 172l250 365l-250 364h160l250 -364l-250 -365h-160zM389 172l250 365l-250 364h160l250 -364l-250 -365h-160z" />
<glyph unicode="&#xbc;" horiz-adv-x="1437" d="M49 1110v127l211 135h78v-756h-119v598zM133 0l1026 1372h113l-1026 -1372h-113zM739 170v111l391 475h138v-488h118v-98h-118v-170h-113v170h-416zM856 268h299v361z" />
<glyph unicode="&#xbd;" horiz-adv-x="1591" d="M49 1110v127l211 135h78v-756h-119v598zM115 0l1026 1372h112l-1026 -1372h-112zM973 -2v80l287 246q81 69 112 110.5t31 95.5q0 62 -42.5 101t-111.5 39q-75 0 -118.5 -47t-45.5 -129l-104 22q0 112 72.5 183t195.5 71q121 0 195 -65.5t74 -174.5q0 -78 -44.5 -140 t-138.5 -140l-172 -146h359v-106h-549z" />
<glyph unicode="&#xbe;" horiz-adv-x="1624" d="M63 864l101 23q3 -84 55 -130t133 -46q73 0 118.5 38t45.5 97q0 58 -44 90.5t-118 32.5h-75v86h67q70 0 114 30.5t44 83.5q0 57 -44.5 92t-113.5 35q-74 0 -121.5 -43t-48.5 -120l-104 22q6 109 81.5 173.5t192.5 64.5q118 0 192 -61.5t74 -157.5q0 -112 -112 -158 q129 -47 129 -172q0 -101 -77.5 -167.5t-199.5 -66.5q-123 0 -204.5 69t-84.5 185zM322 0l1026 1372h112l-1026 -1372h-112zM928 170v111l391 475h137v-488h119v-98h-119v-170h-113v170h-415zM1044 268h299v361z" />
<glyph unicode="&#xbf;" horiz-adv-x="1069" d="M68 55q0 165 113 274t294 126v157h148v-280h-91q-134 0 -223.5 -77t-89.5 -200q0 -129 84 -207.5t219 -78.5q140 0 228.5 88t97.5 235l149 -29q-6 -189 -137.5 -312.5t-337.5 -123.5q-204 0 -329 118t-125 310zM444 930q0 44 30.5 73t76.5 29t76 -29t30 -73 q0 -42 -30.5 -72.5t-75.5 -30.5t-76 30.5t-31 72.5z" />
<glyph unicode="&#xc0;" horiz-adv-x="1419" d="M20 0l615 1372h149l615 -1372h-174l-154 348h-723l-153 -348h-175zM412 494h596l-297 677zM430 1812h182l162 -286h-135z" />
<glyph unicode="&#xc1;" horiz-adv-x="1419" d="M20 0l615 1372h149l615 -1372h-174l-154 348h-723l-153 -348h-175zM412 494h596l-297 677zM653 1526l164 286h182l-208 -286h-138z" />
<glyph unicode="&#xc2;" horiz-adv-x="1419" d="M20 0l615 1372h149l615 -1372h-174l-154 348h-723l-153 -348h-175zM399 1509l238 291h149l240 -291h-160l-153 191l-156 -191h-158zM412 494h596l-297 677z" />
<glyph unicode="&#xc3;" horiz-adv-x="1419" d="M20 0l615 1372h149l615 -1372h-174l-154 348h-723l-153 -348h-175zM408 1577q0 107 51.5 158t126.5 51q41 0 77.5 -15.5t59 -33.5t53 -33.5t60.5 -15.5q35 0 55 26.5t20 69.5h111q0 -109 -52 -161t-126 -52q-41 0 -77.5 15.5t-59 33.5t-53 33.5t-60.5 15.5 q-35 0 -55.5 -26t-20.5 -66h-110zM412 494h596l-297 677z" />
<glyph unicode="&#xc4;" horiz-adv-x="1419" d="M20 0l615 1372h149l615 -1372h-174l-154 348h-723l-153 -348h-175zM401 1651q0 42 31 73t76 31t76.5 -31t31.5 -73q0 -44 -31 -74.5t-77 -30.5t-76.5 30.5t-30.5 74.5zM412 494h596l-297 677zM807 1651q0 42 30.5 73t75.5 31t77 -31t32 -73q0 -44 -31.5 -74.5 t-77.5 -30.5q-45 0 -75.5 30t-30.5 75z" />
<glyph unicode="&#xc5;" horiz-adv-x="1419" d="M20 0l615 1372h149l615 -1372h-174l-154 348h-723l-153 -348h-175zM412 494h596l-297 677zM500 1696q0 85 61 145t150 60t151 -60t62 -145q0 -86 -62 -146.5t-151 -60.5t-150 60t-61 147zM596 1696q0 -46 34 -78.5t81 -32.5q49 0 81.5 32.5t32.5 78.5q0 45 -32.5 77.5 t-81.5 32.5q-47 0 -81 -33t-34 -77z" />
<glyph unicode="&#xc6;" horiz-adv-x="2129" d="M20 0l984 1372h1042v-145h-838v-465h779v-146h-779v-469h840v-147h-1001v317h-615l-223 -317h-189zM535 463h512v727z" />
<glyph unicode="&#xc7;" horiz-adv-x="1591" d="M113 686q0 196 94 360t258 258.5t360 94.5q236 0 413.5 -124t240.5 -331l-156 -45q-52 164 -185 256t-313 92q-151 0 -277 -73.5t-199 -202.5t-73 -285q0 -116 43 -220t116 -179t175 -118.5t215 -43.5q180 0 312.5 91.5t185.5 258.5l156 -37q-60 -205 -225.5 -329.5 t-389.5 -135.5l-145 -321h-170l194 325q-178 20 -322 118t-226 253t-82 338z" />
<glyph unicode="&#xc8;" horiz-adv-x="1304" d="M180 0v1372h1000v-145h-838v-465h778v-146h-778v-469h840v-147h-1002zM418 1812h182l162 -286h-135z" />
<glyph unicode="&#xc9;" horiz-adv-x="1304" d="M180 0v1372h1000v-145h-838v-465h778v-146h-778v-469h840v-147h-1002zM639 1526l164 286h182l-209 -286h-137z" />
<glyph unicode="&#xca;" horiz-adv-x="1304" d="M180 0v1372h1000v-145h-838v-465h778v-146h-778v-469h840v-147h-1002zM385 1509l238 291h149l240 -291h-160l-154 191l-155 -191h-158z" />
<glyph unicode="&#xcb;" horiz-adv-x="1304" d="M180 0v1372h1000v-145h-838v-465h778v-146h-778v-469h840v-147h-1002zM387 1651q0 42 31 73t76 31t76.5 -31t31.5 -73q0 -44 -31 -74.5t-77 -30.5t-76.5 30.5t-30.5 74.5zM793 1651q0 42 30.5 73t75.5 31t77 -31t32 -73q0 -44 -31.5 -74.5t-77.5 -30.5q-45 0 -75.5 30 t-30.5 75z" />
<glyph unicode="&#xcc;" horiz-adv-x="520" d="M-23 1812h185l162 -286h-136zM180 0v1372h162v-1372h-162z" />
<glyph unicode="&#xcd;" horiz-adv-x="520" d="M180 0v1372h162v-1372h-162zM203 1526l164 286h182l-209 -286h-137z" />
<glyph unicode="&#xce;" horiz-adv-x="520" d="M-53 1509l239 291h150l239 -291h-159l-154 191l-156 -191h-159zM180 0v1372h162v-1372h-162z" />
<glyph unicode="&#xcf;" horiz-adv-x="520" d="M-49 1651q0 42 30.5 73t75.5 31t77 -31t32 -73q0 -44 -31.5 -74.5t-77.5 -30.5q-45 0 -75.5 30t-30.5 75zM180 0v1372h162v-1372h-162zM356 1651q0 42 31 73t76 31t76.5 -31t31.5 -73q0 -44 -31 -74.5t-77 -30.5t-76.5 30.5t-30.5 74.5z" />
<glyph unicode="&#xd0;" horiz-adv-x="1521" d="M61 618v146h154v608h455q177 0 321.5 -52.5t240 -144.5t147 -217.5t51.5 -271.5q0 -145 -52 -270.5t-147 -218t-240 -145t-321 -52.5h-455v618h-154zM377 147h293q140 0 254.5 41.5t189 114.5t114.5 171t40 212q0 236 -159.5 388.5t-438.5 152.5h-293v-463h336v-146h-336 v-471z" />
<glyph unicode="&#xd1;" horiz-adv-x="1556" d="M180 0v1372h139l898 -1102v1102h161v-1372h-139l-897 1090v-1090h-162zM494 1577q0 107 51.5 158t126.5 51q41 0 77.5 -15.5t59 -33.5t53 -33.5t60.5 -15.5q35 0 55 26.5t20 69.5h111q0 -109 -52 -161t-126 -52q-41 0 -77.5 15.5t-59 33.5t-53 33.5t-60.5 15.5 q-35 0 -55.5 -26t-20.5 -66h-110z" />
<glyph unicode="&#xd2;" d="M113 686q0 196 93.5 359.5t257 258.5t359.5 95q146 0 277.5 -56t226 -151t150 -227.5t55.5 -278.5q0 -196 -94 -360t-257 -258.5t-358 -94.5q-196 0 -359.5 94.5t-257 258t-93.5 360.5zM276 686q0 -156 72.5 -284.5t198 -201.5t276.5 -73q113 0 213.5 43t173.5 117 t115.5 178t42.5 221q0 155 -72 284t-197.5 203t-275.5 74q-113 0 -214.5 -43.5t-174.5 -118.5t-115.5 -179t-42.5 -220zM543 1812h182l162 -286h-135z" />
<glyph unicode="&#xd3;" d="M113 686q0 196 93.5 359.5t257 258.5t359.5 95q146 0 277.5 -56t226 -151t150 -227.5t55.5 -278.5q0 -196 -94 -360t-257 -258.5t-358 -94.5q-196 0 -359.5 94.5t-257 258t-93.5 360.5zM276 686q0 -156 72.5 -284.5t198 -201.5t276.5 -73q113 0 213.5 43t173.5 117 t115.5 178t42.5 221q0 155 -72 284t-197.5 203t-275.5 74q-113 0 -214.5 -43.5t-174.5 -118.5t-115.5 -179t-42.5 -220zM766 1526l164 286h182l-209 -286h-137z" />
<glyph unicode="&#xd4;" d="M113 686q0 196 93.5 359.5t257 258.5t359.5 95q146 0 277.5 -56t226 -151t150 -227.5t55.5 -278.5q0 -196 -94 -360t-257 -258.5t-358 -94.5q-196 0 -359.5 94.5t-257 258t-93.5 360.5zM276 686q0 -156 72.5 -284.5t198 -201.5t276.5 -73q113 0 213.5 43t173.5 117 t115.5 178t42.5 221q0 155 -72 284t-197.5 203t-275.5 74q-113 0 -214.5 -43.5t-174.5 -118.5t-115.5 -179t-42.5 -220zM512 1509l238 291h149l240 -291h-160l-154 191l-155 -191h-158z" />
<glyph unicode="&#xd5;" d="M113 686q0 196 93.5 359.5t257 258.5t359.5 95q146 0 277.5 -56t226 -151t150 -227.5t55.5 -278.5q0 -196 -94 -360t-257 -258.5t-358 -94.5q-196 0 -359.5 94.5t-257 258t-93.5 360.5zM276 686q0 -156 72.5 -284.5t198 -201.5t276.5 -73q113 0 213.5 43t173.5 117 t115.5 178t42.5 221q0 155 -72 284t-197.5 203t-275.5 74q-113 0 -214.5 -43.5t-174.5 -118.5t-115.5 -179t-42.5 -220zM520 1577q0 107 51.5 158t126.5 51q41 0 77.5 -15.5t59 -33.5t53 -33.5t60.5 -15.5q35 0 55.5 26.5t20.5 69.5h111q0 -108 -52.5 -160.5t-126.5 -52.5 q-41 0 -77.5 15.5t-58.5 33.5t-52.5 33.5t-60.5 15.5q-35 0 -55.5 -26t-20.5 -66h-111z" />
<glyph unicode="&#xd6;" d="M113 686q0 196 93.5 359.5t257 258.5t359.5 95q146 0 277.5 -56t226 -151t150 -227.5t55.5 -278.5q0 -196 -94 -360t-257 -258.5t-358 -94.5q-196 0 -359.5 94.5t-257 258t-93.5 360.5zM276 686q0 -156 72.5 -284.5t198 -201.5t276.5 -73q113 0 213.5 43t173.5 117 t115.5 178t42.5 221q0 155 -72 284t-197.5 203t-275.5 74q-113 0 -214.5 -43.5t-174.5 -118.5t-115.5 -179t-42.5 -220zM514 1651q0 42 31 73t76 31t76.5 -31t31.5 -73q0 -44 -31 -74.5t-77 -30.5t-76.5 30.5t-30.5 74.5zM920 1651q0 42 30.5 73t75.5 31t77 -31t32 -73 q0 -44 -31.5 -74.5t-77.5 -30.5t-76 30t-30 75z" />
<glyph unicode="&#xd7;" horiz-adv-x="1038" d="M129 336l289 289l-289 288l100 103l291 -289l289 289l100 -103l-288 -288l288 -289l-100 -100l-289 288l-291 -288z" />
<glyph unicode="&#xd8;" d="M113 686q0 196 93.5 359.5t257 258.5t359.5 95q262 0 461 -168l123 123l94 -94l-125 -125q156 -193 156 -449q0 -196 -94 -360t-257 -258.5t-358 -94.5q-255 0 -450 158l-133 -133l-95 94l134 133q-166 196 -166 461zM276 686q0 -198 115 -348l783 782q-149 127 -351 127 q-113 0 -214.5 -43.5t-174.5 -118.5t-115.5 -179t-42.5 -220zM485 244q145 -117 338 -117q113 0 213.5 43t173.5 117t115.5 178t42.5 221q0 192 -104 336z" />
<glyph unicode="&#xd9;" horiz-adv-x="1476" d="M164 600v772h162v-772q0 -214 113.5 -342.5t301.5 -128.5q185 0 297.5 129t112.5 342v772h162v-772q0 -282 -157 -454.5t-415 -172.5q-259 0 -418 173t-159 454zM459 1812h182l162 -286h-135z" />
<glyph unicode="&#xda;" horiz-adv-x="1476" d="M164 600v772h162v-772q0 -214 113.5 -342.5t301.5 -128.5q185 0 297.5 129t112.5 342v772h162v-772q0 -282 -157 -454.5t-415 -172.5q-259 0 -418 173t-159 454zM680 1526l164 286h182l-209 -286h-137z" />
<glyph unicode="&#xdb;" horiz-adv-x="1476" d="M164 600v772h162v-772q0 -214 113.5 -342.5t301.5 -128.5q185 0 297.5 129t112.5 342v772h162v-772q0 -282 -157 -454.5t-415 -172.5q-259 0 -418 173t-159 454zM426 1509l238 291h149l240 -291h-160l-154 191l-155 -191h-158z" />
<glyph unicode="&#xdc;" horiz-adv-x="1476" d="M164 600v772h162v-772q0 -214 113.5 -342.5t301.5 -128.5q185 0 297.5 129t112.5 342v772h162v-772q0 -282 -157 -454.5t-415 -172.5q-259 0 -418 173t-159 454zM428 1651q0 42 31 73t76 31t76.5 -31t31.5 -73q0 -44 -31 -74.5t-77 -30.5t-76.5 30.5t-30.5 74.5z M834 1651q0 42 30.5 73t75.5 31t77 -31t32 -73q0 -44 -31.5 -74.5t-77.5 -30.5t-76 30t-30 75z" />
<glyph unicode="&#xdd;" horiz-adv-x="1374" d="M37 1372h180l467 -731l467 731h186l-571 -891v-481h-162v479zM629 1526l164 286h182l-209 -286h-137z" />
<glyph unicode="&#xde;" horiz-adv-x="1286" d="M180 0v1372h162v-248h395q214 0 345.5 -122t131.5 -316q0 -193 -131.5 -314.5t-345.5 -121.5h-395v-250h-162zM342 395h387q146 0 236 82t90 209q0 129 -89.5 210t-236.5 81h-387v-582z" />
<glyph unicode="&#xdf;" horiz-adv-x="1343" d="M180 0v979q0 239 141 384.5t373 145.5q207 0 336 -111t129 -282q0 -117 -56.5 -204.5t-158.5 -123.5q144 -33 225.5 -130t81.5 -250q0 -181 -119.5 -302.5t-322.5 -121.5q-175 0 -332 63l29 131q145 -61 293 -61q145 0 231 85t86 206q0 144 -107.5 223.5t-291.5 79.5h-96 v131h75q142 0 228 70.5t86 185.5q0 123 -87.5 198.5t-228.5 75.5q-161 0 -259.5 -103.5t-98.5 -279.5v-989h-156z" />
<glyph unicode="&#xe0;" horiz-adv-x="1318" d="M78 504q0 155 70.5 277.5t185 187.5t248.5 65q126 0 229.5 -48.5t171.5 -137.5v162h156v-1010h-156v160q-68 -90 -172 -138.5t-229 -48.5q-100 0 -191.5 38.5t-161 106.5t-110.5 168.5t-41 217.5zM229 504q0 -176 108 -283.5t269 -107.5q96 0 181.5 46.5t140.5 138 t55 206.5q0 88 -32 163t-85 124.5t-120.5 77.5t-139.5 28q-161 0 -269 -108t-108 -285zM354 1448h183l161 -287h-135z" />
<glyph unicode="&#xe1;" horiz-adv-x="1318" d="M78 504q0 155 70.5 277.5t185 187.5t248.5 65q126 0 229.5 -48.5t171.5 -137.5v162h156v-1010h-156v160q-68 -90 -172 -138.5t-229 -48.5q-100 0 -191.5 38.5t-161 106.5t-110.5 168.5t-41 217.5zM229 504q0 -176 108 -283.5t269 -107.5q96 0 181.5 46.5t140.5 138 t55 206.5q0 88 -32 163t-85 124.5t-120.5 77.5t-139.5 28q-161 0 -269 -108t-108 -285zM578 1161l163 287h183l-209 -287h-137z" />
<glyph unicode="&#xe2;" horiz-adv-x="1318" d="M78 504q0 155 70.5 277.5t185 187.5t248.5 65q126 0 229.5 -48.5t171.5 -137.5v162h156v-1010h-156v160q-68 -90 -172 -138.5t-229 -48.5q-100 0 -191.5 38.5t-161 106.5t-110.5 168.5t-41 217.5zM229 504q0 -176 108 -283.5t269 -107.5q96 0 181.5 46.5t140.5 138 t55 206.5q0 88 -32 163t-85 124.5t-120.5 77.5t-139.5 28q-161 0 -269 -108t-108 -285zM324 1145l237 291h150l239 -291h-159l-154 190l-156 -190h-157z" />
<glyph unicode="&#xe3;" horiz-adv-x="1318" d="M78 504q0 155 70.5 277.5t185 187.5t248.5 65q126 0 229.5 -48.5t171.5 -137.5v162h156v-1010h-156v160q-68 -90 -172 -138.5t-229 -48.5q-100 0 -191.5 38.5t-161 106.5t-110.5 168.5t-41 217.5zM229 504q0 -176 108 -283.5t269 -107.5q96 0 181.5 46.5t140.5 138 t55 206.5q0 88 -32 163t-85 124.5t-120.5 77.5t-139.5 28q-161 0 -269 -108t-108 -285zM332 1212q0 107 51.5 158t126.5 51q41 0 77.5 -15.5t59 -33.5t53 -33.5t60.5 -15.5q35 0 55.5 26.5t20.5 69.5h110q0 -109 -52 -161t-126 -52q-41 0 -77.5 15.5t-59 34t-53 34 t-60.5 15.5q-35 0 -55.5 -26t-20.5 -67h-110z" />
<glyph unicode="&#xe4;" horiz-adv-x="1318" d="M78 504q0 155 70.5 277.5t185 187.5t248.5 65q126 0 229.5 -48.5t171.5 -137.5v162h156v-1010h-156v160q-68 -90 -172 -138.5t-229 -48.5q-100 0 -191.5 38.5t-161 106.5t-110.5 168.5t-41 217.5zM229 504q0 -176 108 -283.5t269 -107.5q96 0 181.5 46.5t140.5 138 t55 206.5q0 88 -32 163t-85 124.5t-120.5 77.5t-139.5 28q-161 0 -269 -108t-108 -285zM326 1286q0 42 30.5 73.5t75.5 31.5t77 -31.5t32 -73.5q0 -44 -31.5 -74t-77.5 -30t-76 30t-30 74zM731 1286q0 42 31 73.5t76 31.5t76.5 -31.5t31.5 -73.5q0 -44 -31 -74t-77 -30 t-76.5 30t-30.5 74z" />
<glyph unicode="&#xe5;" horiz-adv-x="1318" d="M78 504q0 155 70.5 277.5t185 187.5t248.5 65q126 0 229.5 -48.5t171.5 -137.5v162h156v-1010h-156v160q-68 -90 -172 -138.5t-229 -48.5q-100 0 -191.5 38.5t-161 106.5t-110.5 168.5t-41 217.5zM229 504q0 -176 108 -283.5t269 -107.5q96 0 181.5 46.5t140.5 138 t55 206.5q0 88 -32 163t-85 124.5t-120.5 77.5t-139.5 28q-161 0 -269 -108t-108 -285zM424 1333q0 85 61 145t150 60t151 -60t62 -145q0 -86 -62 -146.5t-151 -60.5t-150 60t-61 147zM520 1333q0 -46 34 -78t81 -32q49 0 82 32t33 78q0 45 -33 78t-82 33q-47 0 -81 -33 t-34 -78z" />
<glyph unicode="&#xe6;" horiz-adv-x="1898" d="M88 279q0 138 104 215t287 77h359v84q0 110 -74 178t-193 68q-121 0 -195 -55t-89 -152l-144 31q18 139 132 224t298 85q125 0 221.5 -51.5t141.5 -144.5q68 95 168 145.5t223 50.5q207 0 344.5 -147.5t140.5 -376.5v-55h-829q13 -160 108 -252t242 -92q94 0 185 55.5 t131 161.5l141 -33q-39 -141 -170.5 -231.5t-288.5 -90.5q-145 0 -254.5 64t-173.5 182q-59 -112 -173.5 -179t-260.5 -67q-183 0 -282 86t-99 220zM238 285q0 -82 65.5 -132.5t181.5 -50.5q144 0 248.5 94.5t104.5 237.5v21h-359q-114 0 -177.5 -45t-63.5 -125zM981 571 h672q-17 152 -105.5 241t-214.5 89q-138 0 -237.5 -89t-114.5 -241z" />
<glyph unicode="&#xe7;" horiz-adv-x="1179" d="M88 504q0 154 72 276.5t191.5 188t262.5 65.5q168 0 301.5 -91.5t178.5 -244.5l-150 -45q-33 114 -123.5 176t-206.5 62q-158 0 -266 -108.5t-108 -278.5q0 -173 107.5 -279t266.5 -106q117 0 207.5 58.5t126.5 168.5l144 -39q-38 -139 -153 -228t-267 -104l-148 -323 h-170l193 325q-197 24 -328 167.5t-131 359.5z" />
<glyph unicode="&#xe8;" horiz-adv-x="1193" d="M88 502q0 157 72.5 280t191 187.5t258.5 64.5q135 0 246 -62.5t178 -178t72 -263.5v-57h-866q10 -163 116.5 -262.5t243.5 -99.5q248 0 344 217l139 -33q-59 -157 -185 -239.5t-298 -82.5q-135 0 -251 64t-188.5 186.5t-72.5 278.5zM246 590h702q-21 145 -114.5 226 t-223.5 81q-84 0 -160 -34.5t-132.5 -105.5t-71.5 -167zM330 1448h182l162 -287h-135z" />
<glyph unicode="&#xe9;" horiz-adv-x="1193" d="M88 502q0 157 72.5 280t191 187.5t258.5 64.5q135 0 246 -62.5t178 -178t72 -263.5v-57h-866q10 -163 116.5 -262.5t243.5 -99.5q248 0 344 217l139 -33q-59 -157 -185 -239.5t-298 -82.5q-135 0 -251 64t-188.5 186.5t-72.5 278.5zM246 590h702q-21 145 -114.5 226 t-223.5 81q-84 0 -160 -34.5t-132.5 -105.5t-71.5 -167zM553 1161l164 287h182l-209 -287h-137z" />
<glyph unicode="&#xea;" horiz-adv-x="1193" d="M88 502q0 157 72.5 280t191 187.5t258.5 64.5q135 0 246 -62.5t178 -178t72 -263.5v-57h-866q10 -163 116.5 -262.5t243.5 -99.5q248 0 344 217l139 -33q-59 -157 -185 -239.5t-298 -82.5q-135 0 -251 64t-188.5 186.5t-72.5 278.5zM246 590h702q-21 145 -114.5 226 t-223.5 81q-84 0 -160 -34.5t-132.5 -105.5t-71.5 -167zM299 1145l238 291h149l240 -291h-160l-154 190l-155 -190h-158z" />
<glyph unicode="&#xeb;" horiz-adv-x="1193" d="M88 502q0 157 72.5 280t191 187.5t258.5 64.5q135 0 246 -62.5t178 -178t72 -263.5v-57h-866q10 -163 116.5 -262.5t243.5 -99.5q248 0 344 217l139 -33q-59 -157 -185 -239.5t-298 -82.5q-135 0 -251 64t-188.5 186.5t-72.5 278.5zM246 590h702q-21 145 -114.5 226 t-223.5 81q-84 0 -160 -34.5t-132.5 -105.5t-71.5 -167zM301 1286q0 42 31 73.5t76 31.5t76.5 -31.5t31.5 -73.5q0 -44 -31 -74t-77 -30t-76.5 30t-30.5 74zM707 1286q0 42 30.5 73.5t75.5 31.5t77 -31.5t32 -73.5q0 -44 -31.5 -74t-77.5 -30t-76 30t-30 74z" />
<glyph unicode="&#xec;" horiz-adv-x="571" d="M6 1448h182l162 -287h-135zM207 0v1010h158v-1010h-158z" />
<glyph unicode="&#xed;" horiz-adv-x="571" d="M207 0v1010h158v-1010h-158zM227 1161l164 287h182l-208 -287h-138z" />
<glyph unicode="&#xee;" horiz-adv-x="571" d="M-29 1145l240 291h149l240 -291h-160l-153 190l-156 -190h-160zM207 0v1010h158v-1010h-158z" />
<glyph unicode="&#xef;" horiz-adv-x="571" d="M-25 1286q0 42 31 73.5t76 31.5t76.5 -31.5t31.5 -73.5q0 -44 -31 -74t-77 -30t-76.5 30t-30.5 74zM207 0v1010h158v-1010h-158zM381 1286q0 42 30.5 73.5t75.5 31.5t77 -31.5t32 -73.5q0 -44 -31.5 -74t-77.5 -30t-76 30t-30 74z" />
<glyph unicode="&#xf0;" horiz-adv-x="1243" d="M88 504q0 116 40.5 216t109.5 168.5t163 107t199 38.5q137 0 250 -76q-89 138 -221 250l-275 -121l-47 111l209 94q-142 91 -301 152v31h256q95 -44 193 -117l219 98l49 -113l-162 -71q174 -159 280.5 -360t106.5 -400q0 -100 -29 -187.5t-79.5 -151t-117.5 -109.5 t-144 -68.5t-158 -22.5q-109 0 -207.5 39t-172.5 107.5t-117.5 168.5t-43.5 216zM240 504q0 -113 54 -203.5t142.5 -139t192.5 -48.5q90 0 163.5 36.5t117.5 95.5t67.5 127.5t23.5 139.5q0 164 -111.5 273.5t-264.5 109.5q-162 0 -273.5 -109.5t-111.5 -281.5z" />
<glyph unicode="&#xf1;" horiz-adv-x="1277" d="M180 0v1010h156v-168q128 192 381 192q182 0 293.5 -118.5t111.5 -311.5v-604h-155v575q0 141 -77.5 228.5t-203.5 87.5q-161 0 -255.5 -106.5t-94.5 -299.5v-485h-156zM356 1212q0 107 52 158t127 51q41 0 77.5 -15.5t58.5 -33.5t52.5 -33.5t60.5 -15.5q35 0 55.5 26.5 t20.5 69.5h111q0 -109 -52 -161t-126 -52q-41 0 -77.5 15.5t-59 34t-53 34t-60.5 15.5q-35 0 -55.5 -26t-20.5 -67h-111z" />
<glyph unicode="&#xf2;" horiz-adv-x="1245" d="M88 506q0 229 154.5 377.5t382.5 148.5q148 0 269.5 -66.5t193 -187.5t71.5 -272q0 -229 -154.5 -380t-379.5 -151q-112 0 -211 40t-170.5 109.5t-113.5 168.5t-42 213zM240 506q0 -171 112.5 -282t272.5 -111q159 0 270 111t111 282q0 170 -111 279.5t-270 109.5 q-160 0 -272.5 -109.5t-112.5 -279.5zM344 1458h182l162 -287h-135z" />
<glyph unicode="&#xf3;" horiz-adv-x="1245" d="M88 506q0 229 154.5 377.5t382.5 148.5q148 0 269.5 -66.5t193 -187.5t71.5 -272q0 -229 -154.5 -380t-379.5 -151q-112 0 -211 40t-170.5 109.5t-113.5 168.5t-42 213zM240 506q0 -171 112.5 -282t272.5 -111q159 0 270 111t111 282q0 170 -111 279.5t-270 109.5 q-160 0 -272.5 -109.5t-112.5 -279.5zM567 1171l164 287h182l-208 -287h-138z" />
<glyph unicode="&#xf4;" horiz-adv-x="1245" d="M88 506q0 229 154.5 377.5t382.5 148.5q148 0 269.5 -66.5t193 -187.5t71.5 -272q0 -229 -154.5 -380t-379.5 -151q-112 0 -211 40t-170.5 109.5t-113.5 168.5t-42 213zM240 506q0 -171 112.5 -282t272.5 -111q159 0 270 111t111 282q0 170 -111 279.5t-270 109.5 q-160 0 -272.5 -109.5t-112.5 -279.5zM313 1155l238 291h149l240 -291h-160l-153 191l-156 -191h-158z" />
<glyph unicode="&#xf5;" horiz-adv-x="1245" d="M88 506q0 229 154.5 377.5t382.5 148.5q148 0 269.5 -66.5t193 -187.5t71.5 -272q0 -229 -154.5 -380t-379.5 -151q-112 0 -211 40t-170.5 109.5t-113.5 168.5t-42 213zM240 506q0 -171 112.5 -282t272.5 -111q159 0 270 111t111 282q0 170 -111 279.5t-270 109.5 q-160 0 -272.5 -109.5t-112.5 -279.5zM322 1225q0 107 51.5 158t126.5 51q41 0 77.5 -15.5t59 -34t53 -34t60.5 -15.5q35 0 55 27t20 70h111q0 -109 -52 -161t-126 -52q-41 0 -77.5 15.5t-59 33.5t-53 33.5t-60.5 15.5q-35 0 -55.5 -26t-20.5 -66h-110z" />
<glyph unicode="&#xf6;" horiz-adv-x="1245" d="M88 506q0 229 154.5 377.5t382.5 148.5q148 0 269.5 -66.5t193 -187.5t71.5 -272q0 -229 -154.5 -380t-379.5 -151q-112 0 -211 40t-170.5 109.5t-113.5 168.5t-42 213zM240 506q0 -171 112.5 -282t272.5 -111q159 0 270 111t111 282q0 170 -111 279.5t-270 109.5 q-160 0 -272.5 -109.5t-112.5 -279.5zM315 1296q0 42 31 73.5t76 31.5t76.5 -31.5t31.5 -73.5q0 -44 -31 -74t-77 -30t-76.5 30t-30.5 74zM721 1296q0 42 30.5 73.5t75.5 31.5t77 -31.5t32 -73.5q0 -44 -31.5 -74t-77.5 -30t-76 30t-30 74z" />
<glyph unicode="&#xf7;" horiz-adv-x="1187" d="M143 555v139h901v-139h-901zM483 258q0 42 31 72t76 30t75.5 -30t30.5 -72q0 -44 -30 -73t-76 -29t-76.5 29t-30.5 73zM483 993q0 42 31 72.5t76 30.5t75.5 -30.5t30.5 -72.5q0 -44 -30 -73t-76 -29t-76.5 29t-30.5 73z" />
<glyph unicode="&#xf8;" horiz-adv-x="1241" d="M88 506q0 229 154.5 377.5t382.5 148.5q195 0 333 -110l113 112l80 -80l-111 -110q119 -142 119 -338q0 -229 -154.5 -380t-379.5 -151q-196 0 -340 113l-113 -113l-80 80l113 113q-117 142 -117 338zM240 506q0 -133 69 -234l547 547q-102 76 -231 76 q-160 0 -272.5 -109.5t-112.5 -279.5zM389 193q104 -80 236 -80q159 0 270 111t111 282q0 132 -70 231z" />
<glyph unicode="&#xf9;" horiz-adv-x="1277" d="M156 406v604h157v-576q0 -141 76.5 -227t202.5 -86q161 0 255.5 105t94.5 298v486h158v-1008h-158v164q-62 -92 -159.5 -141.5t-221.5 -49.5q-182 0 -293.5 119t-111.5 312zM350 1448h182l162 -287h-135z" />
<glyph unicode="&#xfa;" horiz-adv-x="1277" d="M156 406v604h157v-576q0 -141 76.5 -227t202.5 -86q161 0 255.5 105t94.5 298v486h158v-1008h-158v164q-62 -92 -159.5 -141.5t-221.5 -49.5q-182 0 -293.5 119t-111.5 312zM571 1161l164 287h183l-209 -287h-138z" />
<glyph unicode="&#xfb;" horiz-adv-x="1277" d="M156 406v604h157v-576q0 -141 76.5 -227t202.5 -86q161 0 255.5 105t94.5 298v486h158v-1008h-158v164q-62 -92 -159.5 -141.5t-221.5 -49.5q-182 0 -293.5 119t-111.5 312zM317 1145l238 291h150l239 -291h-160l-153 190l-156 -190h-158z" />
<glyph unicode="&#xfc;" horiz-adv-x="1277" d="M156 406v604h157v-576q0 -141 76.5 -227t202.5 -86q161 0 255.5 105t94.5 298v486h158v-1008h-158v164q-62 -92 -159.5 -141.5t-221.5 -49.5q-182 0 -293.5 119t-111.5 312zM319 1286q0 42 31 73.5t76 31.5t77 -31.5t32 -73.5q0 -44 -31.5 -74t-77.5 -30t-76.5 30 t-30.5 74zM725 1286q0 42 30.5 73.5t75.5 31.5t77 -31.5t32 -73.5q0 -44 -31.5 -74t-77.5 -30t-76 30t-30 74z" />
<glyph unicode="&#xfd;" horiz-adv-x="1153" d="M37 1010h176l360 -807l369 807h174l-618 -1358h-174l165 362zM520 1163l164 287h182l-209 -287h-137z" />
<glyph unicode="&#xfe;" horiz-adv-x="1329" d="M180 -348v1823h156v-627q68 89 171.5 137.5t229.5 48.5q134 0 248.5 -65t185 -187.5t70.5 -277.5q0 -117 -41 -217.5t-110.5 -168.5t-161 -106.5t-191.5 -38.5q-125 0 -229 48.5t-172 138.5v-508h-156zM336 504q0 -115 55 -206.5t140.5 -138t181.5 -46.5q161 0 269 107.5 t108 283.5q0 177 -108 285t-269 108q-72 0 -139.5 -28t-120.5 -77.5t-85 -124.5t-32 -163z" />
<glyph unicode="&#xff;" horiz-adv-x="1153" d="M37 1010h176l360 -807l369 807h174l-618 -1358h-174l165 362zM266 1288q0 42 31 73.5t76 31.5t76.5 -31.5t31.5 -73.5q0 -44 -31 -74t-77 -30t-76.5 30t-30.5 74zM672 1288q0 42 30.5 73.5t75.5 31.5t77 -31.5t32 -73.5q0 -44 -31.5 -74t-77.5 -30t-76 30t-30 74z" />
<glyph unicode="&#x152;" horiz-adv-x="2142" d="M113 686q0 148 56.5 274.5t159.5 217.5t255.5 142.5t337.5 51.5h1095v-145h-837v-465h778v-146h-778v-469h839v-147h-1097q-185 0 -337.5 51.5t-255.5 142.5t-159.5 217.5t-56.5 274.5zM276 686q0 -243 171.5 -391t474.5 -148h96v1080h-96q-303 0 -474.5 -149 t-171.5 -392z" />
<glyph unicode="&#x153;" horiz-adv-x="2113" d="M88 506q0 229 154.5 377.5t382.5 148.5q145 0 266 -65.5t192 -180.5q69 116 188.5 182t258.5 66q206 0 347 -140.5t148 -363.5v-57h-866q10 -163 117 -262.5t244 -99.5q248 0 344 217l139 -33q-59 -157 -185 -239.5t-298 -82.5q-135 0 -253 66t-186 182 q-71 -115 -191 -180.5t-265 -65.5q-112 0 -211 40t-170.5 109.5t-113.5 168.5t-42 213zM240 506q0 -171 112.5 -282t272.5 -111q159 0 270 111t111 282q0 170 -111 279.5t-270 109.5q-160 0 -272.5 -109.5t-112.5 -279.5zM1165 590h703q-21 145 -114.5 226t-223.5 81 q-131 0 -237 -82.5t-128 -224.5z" />
<glyph unicode="&#x178;" horiz-adv-x="1374" d="M37 1372h180l467 -731l467 731h186l-571 -891v-481h-162v479zM377 1651q0 42 30.5 73t75.5 31t77 -31t32 -73q0 -44 -31.5 -74.5t-77.5 -30.5q-45 0 -75.5 30t-30.5 75zM782 1651q0 42 31 73t76 31t76.5 -31t31.5 -73q0 -44 -31 -74.5t-77 -30.5t-76.5 30.5t-30.5 74.5z " />
<glyph unicode="&#x2c6;" horiz-adv-x="1228" d="M303 1145l238 291h149l240 -291h-160l-154 190l-155 -190h-158z" />
<glyph unicode="&#x2dc;" horiz-adv-x="1228" d="M313 1214q0 107 52 158t127 51q41 0 77.5 -15.5t58.5 -33.5t52.5 -33.5t60.5 -15.5q35 0 55.5 26.5t20.5 69.5h111q0 -109 -52 -161t-126 -52q-41 0 -77.5 15.5t-59 34t-53 34t-60.5 15.5q-35 0 -55.5 -26t-20.5 -67h-111z" />
<glyph unicode="&#x2000;" horiz-adv-x="950" />
<glyph unicode="&#x2001;" horiz-adv-x="1901" />
<glyph unicode="&#x2002;" horiz-adv-x="950" />
<glyph unicode="&#x2003;" horiz-adv-x="1901" />
<glyph unicode="&#x2004;" horiz-adv-x="633" />
<glyph unicode="&#x2005;" horiz-adv-x="475" />
<glyph unicode="&#x2006;" horiz-adv-x="316" />
<glyph unicode="&#x2007;" horiz-adv-x="316" />
<glyph unicode="&#x2008;" horiz-adv-x="237" />
<glyph unicode="&#x2009;" horiz-adv-x="380" />
<glyph unicode="&#x200a;" horiz-adv-x="105" />
<glyph unicode="&#x2010;" horiz-adv-x="907" d="M123 455v137h661v-137h-661z" />
<glyph unicode="&#x2011;" horiz-adv-x="907" d="M123 455v137h661v-137h-661z" />
<glyph unicode="&#x2012;" horiz-adv-x="907" d="M123 455v137h661v-137h-661z" />
<glyph unicode="&#x2013;" horiz-adv-x="1269" d="M123 461v123h1024v-123h-1024z" />
<glyph unicode="&#x2014;" horiz-adv-x="2129" d="M123 461v123h1884v-123h-1884z" />
<glyph unicode="&#x2018;" horiz-adv-x="512" d="M96 834v6l197 532h123l-135 -538h-185z" />
<glyph unicode="&#x2019;" horiz-adv-x="512" d="M98 834l135 538h185v-4l-199 -534h-121z" />
<glyph unicode="&#x201a;" horiz-adv-x="512" d="M98 -270l135 538h185v-4l-199 -534h-121z" />
<glyph unicode="&#x201c;" horiz-adv-x="849" d="M96 834v6l197 532h123l-135 -538h-185zM434 834v6l197 532h123l-136 -538h-184z" />
<glyph unicode="&#x201d;" horiz-adv-x="849" d="M98 834l135 538h185v-4l-199 -534h-121zM436 834l135 538h185v-4l-199 -534h-121z" />
<glyph unicode="&#x201e;" horiz-adv-x="849" d="M98 -270l135 538h185v-4l-199 -534h-121zM436 -270l135 538h185v-4l-199 -534h-121z" />
<glyph unicode="&#x2022;" horiz-adv-x="815" d="M102 539q0 120 88.5 207.5t217.5 87.5t217 -87.5t88 -207.5q0 -126 -87 -209.5t-218 -83.5t-218.5 83.5t-87.5 209.5z" />
<glyph unicode="&#x2026;" horiz-adv-x="1318" d="M102 96q0 42 31 73.5t76 31.5t75.5 -31.5t30.5 -73.5q0 -43 -30.5 -72.5t-75.5 -29.5q-46 0 -76.5 29.5t-30.5 72.5zM553 96q0 42 30.5 73.5t75.5 31.5t76 -31.5t31 -73.5q0 -43 -30.5 -72.5t-76.5 -29.5q-45 0 -75.5 29.5t-30.5 72.5zM1004 96q0 42 30.5 73.5t75.5 31.5 t76 -31.5t31 -73.5q0 -43 -30.5 -72.5t-76.5 -29.5q-45 0 -75.5 29.5t-30.5 72.5z" />
<glyph unicode="&#x202f;" horiz-adv-x="380" />
<glyph unicode="&#x2039;" horiz-adv-x="512" d="M51 537l250 364h160l-250 -364l250 -365h-160z" />
<glyph unicode="&#x203a;" horiz-adv-x="512" d="M51 172l250 365l-250 364h160l250 -364l-250 -365h-160z" />
<glyph unicode="&#x205f;" horiz-adv-x="475" />
<glyph unicode="&#x20ac;" horiz-adv-x="1622" d="M180 471v119h221q-4 62 -4 96q0 28 4 86h-221v119h236q48 234 194.5 371t356.5 137q202 0 346 -128t194 -345l-161 -35q-38 171 -139 264.5t-240 93.5q-143 0 -243.5 -96t-139.5 -262h524l-31 -119h-512q-4 -58 -4 -86q0 -34 4 -96h465l-29 -119h-415q42 -160 142 -252 t239 -92q138 0 239 91.5t146 262.5l157 -37q-52 -216 -196 -342.5t-346 -126.5q-209 0 -354 133.5t-193 362.5h-240z" />
<glyph unicode="&#x2122;" horiz-adv-x="1331" d="M78 1290v82h475v-82h-191v-463h-98v463h-186zM637 827v545h104l195 -389l197 389h102v-545h-92v367l-176 -363h-62l-176 363v-367h-92z" />
<glyph unicode="&#x25fc;" horiz-adv-x="1013" d="M0 0v1014h1014v-1014h-1014z" />
</font>
</defs>
</svg>
