<svg xmlns="http://www.w3.org/2000/svg" viewBox="0 0 25.53 16"><title>be-16px</title><g id="Layer_2" data-name="Layer 2"><g id="Layer_1-2" data-name="Layer 1"><path d="M7.4,0A9.41,9.41,0,0,1,9.46.2,4.42,4.42,0,0,1,11,.85a3.06,3.06,0,0,1,1,1.19,4.27,4.27,0,0,1,.35,1.85,3.52,3.52,0,0,1-.53,2,3.92,3.92,0,0,1-1.61,1.29,3.76,3.76,0,0,1,2.16,1.46,4.37,4.37,0,0,1,.71,2.53,4.25,4.25,0,0,1-.46,2,3.91,3.91,0,0,1-1.24,1.43,5.35,5.35,0,0,1-1.78.81,7.87,7.87,0,0,1-2.06.27H0V0H7.4M7,6.35a2.53,2.53,0,0,0,1.52-.44,1.66,1.66,0,0,0,.59-1.43,1.89,1.89,0,0,0-.19-.91A1.47,1.47,0,0,0,8.34,3a2,2,0,0,0-.76-.28,5.1,5.1,0,0,0-.89-.07H3.46V6.35ZM7.15,13a4.37,4.37,0,0,0,1-.1,2.1,2.1,0,0,0,.81-.33A1.66,1.66,0,0,0,9.5,12a2.15,2.15,0,0,0,.2-1A2.06,2.06,0,0,0,9,9.22a2.93,2.93,0,0,0-1.8-.51H3.46V13Z"/><path d="M18.08,13a2.78,2.78,0,0,0,2,.69,2.75,2.75,0,0,0,1.63-.48,2.08,2.08,0,0,0,.84-1h2.75a5.25,5.25,0,0,1-2,2.94A5.9,5.9,0,0,1,20,16a6.46,6.46,0,0,1-2.43-.43,5.34,5.34,0,0,1-1.84-1.22,5.59,5.59,0,0,1-1.15-1.9A6.94,6.94,0,0,1,14.17,10a6.62,6.62,0,0,1,.42-2.38,5.66,5.66,0,0,1,1.19-1.91,5.75,5.75,0,0,1,1.85-1.27A6,6,0,0,1,20,4a5.44,5.44,0,0,1,2.52.56A5.22,5.22,0,0,1,24.3,6.08a6.3,6.3,0,0,1,1,2.16,8.16,8.16,0,0,1,.21,2.53h-8.2A3.19,3.19,0,0,0,18.08,13m3.59-6a2.34,2.34,0,0,0-1.77-.63,2.56,2.56,0,0,0-1.24.26,2.48,2.48,0,0,0-.79.62,2.29,2.29,0,0,0-.42.8,3.35,3.35,0,0,0-.14.75h5.08A3.13,3.13,0,0,0,21.67,7Z"/><rect x="16.67" y="1.05" width="6.37" height="1.55"/></g></g></svg>