<svg xmlns="http://www.w3.org/2000/svg" viewBox="0 0 18.02 18"><title>dribble-18px</title><g id="Layer_2" data-name="Layer 2"><g id="Layer_1-2" data-name="Layer 1"><path d="M9,0a9,9,0,1,0,9,9A9,9,0,0,0,9,0Zm5.93,4.25a7.53,7.53,0,0,1,1.68,4.63,18.8,18.8,0,0,0-3.52-.34,14.7,14.7,0,0,0-1.73.1c0-.12-.1-.24-.16-.36-.15-.36-.31-.71-.48-1.07A10.38,10.38,0,0,0,14.94,4.25ZM9,1.41A7.57,7.57,0,0,1,14,3.3,8.71,8.71,0,0,1,10.1,6,40.73,40.73,0,0,0,7.3,1.61,7.41,7.41,0,0,1,9,1.41Zm-3.27.74A47.3,47.3,0,0,1,8.53,6.48a29,29,0,0,1-6.88.92H1.57A7.67,7.67,0,0,1,5.74,2.15ZM1.4,9V8.82h.2A28.24,28.24,0,0,0,9.2,7.74c.21.41.41.81.59,1.22L9.53,9a12.17,12.17,0,0,0-6.21,5A7.53,7.53,0,0,1,1.4,9ZM9,16.62A7.59,7.59,0,0,1,4.37,15a10.52,10.52,0,0,1,6-4.72h0A31.29,31.29,0,0,1,12,16,7.57,7.57,0,0,1,9,16.62Zm4.31-1.35a32.82,32.82,0,0,0-1.46-5.33,9.27,9.27,0,0,1,1.54-.12,11.16,11.16,0,0,1,3.12.44A7.57,7.57,0,0,1,13.32,15.27Z"/></g></g></svg>