<?xml version="1.0" encoding="UTF-8"?>
<svg width="19px" height="18px" viewBox="0 0 19 18" version="1.1" xmlns="http://www.w3.org/2000/svg" xmlns:xlink="http://www.w3.org/1999/xlink">
    <!-- Generator: Sketch 48.2 (47327) - http://www.bohemiancoding.com/sketch -->
    <title>XMLID_1_</title>
    <desc>Created with Sketch.</desc>
    <defs></defs>
    <g id="Team-Members" stroke="none" stroke-width="1" fill="none" fill-rule="evenodd" transform="translate(-447.000000, -701.000000)">
        <g id="Symbol-18-–-1" transform="translate(447.000000, 701.000000)" fill="#000000">
            <g id="XMLID_1_">
                <path d="M9.20023838,3.15140012e-05 C6.75829172,-0.00636383974 4.41451806,0.960865253 2.68779509,2.68758822 C0.961072124,4.41431119 -0.00615696919,6.75808485 0.000238384557,9.20003151 C-0.0283873691,13.1657337 2.52358035,16.6898796 6.30023838,17.9000315 C6.80023838,18.0000315 6.90023838,17.7000315 6.90023838,17.5000315 L6.90023838,15.9000315 C4.30023838,16.5000315 3.80023838,14.7000315 3.80023838,14.7000315 C3.40023838,13.6000315 2.80023838,13.4000315 2.80023838,13.4000315 C2.00023838,12.8000315 2.90023838,12.8000315 2.90023838,12.8000315 C3.471601,12.8926952 3.97872956,13.2187064 4.30023838,13.7000315 C4.84371069,14.643011 6.03078538,14.9947369 7.00023838,14.5000315 C7.02830427,14.0349676 7.24502682,13.6015225 7.60023838,13.3000315 C5.60023838,13.1000315 3.40023838,12.3000315 3.40023838,8.80003151 C3.4230062,7.89148822 3.73868202,7.01461093 4.30023838,6.30003151 C4.02307152,5.51703295 4.05889544,4.65725883 4.40023838,3.90003151 C4.40023838,3.90003151 5.20023838,3.70003151 6.90023838,4.80003151 C8.40748677,4.4000469 9.99299,4.4000469 11.5002384,4.80003151 C13.3002384,3.60003151 14.0002384,3.90003151 14.0002384,3.90003151 C14.3462699,4.65614125 14.3821705,5.51775662 14.1002384,6.30003151 C14.7185158,6.98187164 15.0420441,7.88056144 15.0002384,8.80003151 C15.0002384,12.3000315 12.8002384,13.1000315 10.8002384,13.3000315 C11.2275871,13.7588195 11.4449352,14.3746392 11.4002384,15.0000315 L11.4002384,17.5000315 C11.4074057,17.6419744 11.4813526,17.772143 11.5996067,17.8509791 C11.7178608,17.9298151 11.8664575,17.948009 12.0002384,17.9000315 C16.2659842,16.4904718 18.8853667,12.2012645 18.1910568,7.76264092 C17.496747,3.32401731 13.6926631,0.0395980594 9.20023838,3.15140012e-05 Z"></path>
            </g>
        </g>
    </g>
</svg>